<?xml version="1.0" encoding="utf-8"?>
<!-- Generator: Adobe Illustrator 24.1.1, SVG Export Plug-In . SVG Version: 6.00 Build 0)  -->
<svg version="1.1" xmlns="http://www.w3.org/2000/svg" xmlns:xlink="http://www.w3.org/1999/xlink" x="0px" y="0px"
	 viewBox="0 0 792 612" style="enable-background:new 0 0 792 612;" xml:space="preserve">
<style type="text/css">
	.st0{display:none;}
	.st1{display:inline;}
	.st2{clip-path:url(#SVGID_2_);}
	.st3{clip-path:url(#SVGID_2_);fill:#9A6B51;}
	.st4{clip-path:url(#SVGID_6_);fill:#DFA792;}
	.st5{clip-path:url(#SVGID_6_);fill:#F1BFAF;}
	.st6{clip-path:url(#SVGID_6_);fill:#8B463D;}
	.st7{clip-path:url(#SVGID_6_);fill:#ECABAA;}
	.st8{clip-path:url(#SVGID_6_);fill:#7E7575;}
	.st9{clip-path:url(#SVGID_6_);fill:none;stroke:#231F20;stroke-width:0.3017;stroke-miterlimit:10;}
	.st10{clip-path:url(#SVGID_6_);}
	.st11{clip-path:url(#SVGID_6_);fill:#3B2315;}
	.st12{clip-path:url(#SVGID_6_);fill:#191311;}
	.st13{clip-path:url(#SVGID_6_);fill:#2B3233;}
	.st14{clip-path:url(#SVGID_6_);fill:#CCA186;}
	.st15{clip-path:url(#SVGID_6_);fill:#979DA1;}
	.st16{clip-path:url(#SVGID_6_);fill:#663B27;}
	.st17{clip-path:url(#SVGID_6_);fill:#140500;}
	.st18{clip-path:url(#SVGID_6_);fill:#231F20;}
	.st19{clip-path:url(#SVGID_6_);fill:none;stroke:#231F20;stroke-width:0.6035;stroke-miterlimit:10;}
	.st20{clip-path:url(#SVGID_6_);fill:#8B5D4A;}
	.st21{clip-path:url(#SVGID_6_);fill:#A78877;}
	.st22{clip-path:url(#SVGID_6_);fill:#A7765E;}
	.st23{clip-path:url(#SVGID_6_);fill:#000900;}
	.st24{clip-path:url(#SVGID_6_);fill:#41251B;}
	.st25{fill:#9A6B51;}
	.st26{fill:#DFA792;}
	.st27{fill:#F1BFAF;}
	.st28{fill:#8B463D;}
	.st29{fill:#ECABAA;}
	.st30{fill:none;stroke:#231F20;stroke-width:0.5;stroke-miterlimit:10;}
	.st31{fill:#7E7575;}
	.st32{stroke:#231F20;stroke-width:0.5;stroke-miterlimit:10;}
	.st33{fill:#3B2315;stroke:#231F20;stroke-width:0.5;stroke-miterlimit:10;}
	.st34{fill:#191311;}
	.st35{fill:#2B3233;}
	.st36{fill:#CCA186;}
	.st37{fill:#979DA1;}
	.st38{fill:#663B27;}
	.st39{fill:#140500;}
	.st40{fill:#231F20;}
	.st41{fill:none;stroke:#231F20;stroke-miterlimit:10;}
	.st42{fill:#8B5D4A;}
	.st43{fill:none;}
	.st44{fill:#A78877;}
	.st45{fill:#A7765E;}
	.st46{fill:#000900;}
	.st47{fill:#41251B;}
	.st48{display:inline;fill:#F2C4AF;}
	.st49{display:inline;fill:#D5A789;}
	.st50{display:inline;fill:#DFA792;}
	.st51{display:inline;fill:#B0856D;}
	.st52{display:inline;fill:#673B26;}
	.st53{display:inline;fill:#2D3434;}
	.st54{display:inline;fill:#5E6969;}
	.st55{display:inline;fill:#191311;}
	.st56{display:inline;fill:#A7765E;}
	.st57{display:inline;fill:#ECABAA;}
	.st58{display:inline;fill:#B48A6C;}
</style>
<g id="Layer_1" class="st0">
	<g class="st1">
		<g>
			<defs>
				<rect id="SVGID_1_" x="150.7" y="126" width="478" height="369.3"/>
			</defs>
			<clipPath id="SVGID_2_">
				<use xlink:href="#SVGID_1_"  style="overflow:visible;"/>
			</clipPath>
			<g class="st2">
				<defs>
					<rect id="SVGID_3_" x="241.7" y="202.1" width="288.4" height="222.9"/>
				</defs>
				<clipPath id="SVGID_4_">
					<use xlink:href="#SVGID_3_"  style="overflow:visible;"/>
				</clipPath>
			</g>
			<polyline class="st3" points="474.7,400.1 494.3,410.3 494,458.8 			"/>
			<g class="st2">
				<defs>
					<rect id="SVGID_5_" x="150.7" y="126" width="478" height="369.3"/>
				</defs>
				<clipPath id="SVGID_6_">
					<use xlink:href="#SVGID_5_"  style="overflow:visible;"/>
				</clipPath>
				<path class="st4" d="M425.6,331.5C425.6,331.5,425.6,331.5,425.6,331.5L425.6,331.5c0,0-0.1,0.1-0.1,0.1c0,0,0,0,0,0
					c-0.9,0.6-1.1,2-1.2,2.4c-0.8,4.1-4,10.9-8.4,20.4c-2.9,6.2-6.9,9.8-12.2,14.6c-3.5,3.2-7.1,6.4-11.9,9l0,0
					c-1.1,0.4-2.3,0.9-3.9,1.3c-4.6,1.3-6.3,2.1-7.8,2.5c0,0,0,0,0,0h0c-2.3,0.6-4.4,0.5-15.5,0.7c-0.4,0-1.7-0.1-3.4-0.2
					c-1-0.1-2.1-0.2-3.3-0.4c0,0,0,0-0.1,0c-2.7-0.4-5.4-0.8-6.8-1.4c-0.2-0.1-0.4-0.2-0.6-0.3c-1.3-0.9-2.2-1.8-2.8-3
					c-0.6-1.1-1-2.3-1.2-3.9c-1.7-9.5-2.6-14.2-2.7-14.7c-2.1-8.4-4.6-9-5.7-16.8c-0.6-3.9,0.2-3.2-0.4-9.1
					c-0.9-10-2.8-11.1-2.4-16.6c0-0.1,0-0.3,0-0.4c0-0.5,0.1-0.9,0.2-1.3c0.2-1.2,0.5-2.2,0.8-3c0,0,0,0,0,0c0-0.1,0-0.1,0.1-0.2
					s0-0.1,0.1-0.2c0-0.1,0-0.1,0.1-0.2c0.8-2,1.6-3.3,1.2-6.2c-0.1-1-0.4-1.8-0.6-2.5v0c0,0,0-0.1-0.1-0.1c-1-2.5-2.5-3.7-2.9-7.4
					c-0.1-0.8,0-1.6,0.1-2.5v0c0.1-1,0.4-2.1,0.8-3.4c0.1-0.3,0.2-0.6,0.2-0.9c0.1-0.3,0.2-0.6,0.3-0.9c0.2-0.6,0.4-1.3,0.6-2
					c0.1-0.3,0.2-0.7,0.3-1c0.1-0.2,0.1-0.4,0.2-0.6c1.4-4.8,2-6.8,3.4-11.7c1.4-4.7,0.8-3.9,1.4-6.3c2.5-8.6,12.6-18.3,23.3-20.7
					c11.5-2.6,20.5,2.3,22.9,3.6c4,2.2,7,5,11.8,11.1c4.5,5.6,9,11.3,13.1,18.4c2.1,3.7,4.2,7.9,6.1,12.7c0,0.1,0.1,0.3,0.2,0.4
					c0.9,2.2,1.7,4.3,2.5,6.6C424.7,307.5,427.6,318.5,425.6,331.5"/>
				<path class="st5" d="M350.7,291.3c0,0.6,0,1.5-0.4,2.4c-0.5,1.4-1.4,2.2-1.9,2.7c-1.8,1.9-0.8,3.4-2.4,9c-0.5,1.7-1,3.5-2,5.6
					c-1,2.2-1.7,2.7-2.1,4.6c-0.2,0.8-0.7,2.7-0.3,5c0.2,1,0.8,4.6,3.6,5.9c0.8,0.4,1.9,0.4,1.9,0.4c0.7,0.1,1.3,0,1.6,0
					c0.5-0.1,0.8-0.1,1-0.2c2.3-0.4,2.9-0.8,4.4-0.9c0.5,0,0.9,0,1.5,0.1c1.1,0.2,1.6,0.7,3.3,0.7c0.6,0,5.4,0.1,7.5-3.4
					c1.1-1.8,1.3-4.2,0.3-6.3c-1.2-2.5-3.6-3.3-4-3.5L350.7,291.3z"/>
				<path class="st6" d="M349,338.1c-1.8-0.3-2.2-1.2-3.5-1.1c-2.2,0.3-3.7,3.3-4,5.4c-0.2,0.9-0.5,2.8,0.7,3.9c0.4,0.4,1,0.6,1,0.6
					c0,0,0.6,0.2,1.2,0.1c0.9-0.2,1.2-1.2,1.7-1.7c1.2-1.2,3.1-0.9,5.2-0.8c5.2,0.3,4.6-0.8,8.6-0.4c3.9,0.4,4.5,1.5,8.4,1.7
					c0.9,0.1,5.5,0.4,5.8-0.7c0.2-0.9-2.8-2.3-8.9-5.1c-8.2-3.8-9.8-3.7-11-3.4C352.3,337.2,351.2,338.5,349,338.1"/>
				<path class="st7" d="M369.3,345.8c-3.8-0.5-4.1-1.4-7.6-1.8c-2.8-0.4-5.1-0.1-7.2,0.1c-3.1,0.3-3.4,0.2-5.4,0.2
					c-1.7,0-3,0.2-3.5,1.2c-0.2,0.3-0.4,0.5-0.7,1c-0.5,0.7-1,0.2-1.2,0.6c-0.6,0.9,1.2,4.1,3.6,4.9c1.4,0.4,2.1-0.1,4.6-0.6
					c4.4-0.9,4.9,0.3,8.4-0.5c2.8-0.7,2.5-1.4,6.3-2.8c4.2-1.5,7.2-2.3,7.2-2.6C373.9,345.2,372.2,346.2,369.3,345.8"/>
				<path class="st8" d="M378.1,290c-1.3,0-4.1,0.1-6.2,2c-0.3,0.2-2.3,2.1-1.8,3.4c0.2,0.4,0.7,0.8,2.3,1.2c3,0.7,5.3,0.6,5.3,0.6
					c3.3-0.1,3.7-0.6,7.2-0.9c4.2-0.4,5.8,0,6-0.6c0.3-0.9-3.3-2.9-5.8-3.9C382.3,290.6,379.8,290.2,378.1,290"/>
				<path class="st9" d="M370.7,291.6c0.8-1,2.3-2.8,4.9-3.8c3.1-1.2,5.8-0.6,8-0.1c3.5,0.8,6.2,2.4,8,3.8"/>
				<path class="st9" d="M421.2,292.3c0,0.9-0.1,1.8-0.1,2.6c0,0.8-0.1,1.6-0.1,2.5c0,0,0,0,0,0c-7.7-3.6-15.4-7.1-23.1-10.7
					c-0.5,0.2-1.4,0.3-1.7,1.1c-0.8,2.1,0,5.2-1.2,10.3c-0.5,2.3-0.7,6.7-3.8,9.4c-1.4,1.2-2.7,1.6-5.4,2.3c-1.3,0.3-5,1.2-14.1,0.7
					c-4.5-0.3-6.7-0.7-7.8-1c-0.6-0.2-0.9-0.3-1.1-0.5c-3.6-2.2-5.2-6-5.8-7.4c-2.2-5.4-0.7-9-3.2-10.5c-1.1-0.6-2.5-0.6-3.2-0.5h0
					c0,0-0.1,0-0.1,0c-0.3,0-0.5,0.1-0.5,0.1c-1.7,0.4-2.7,1.4-3.1,1.7c-1.6,1.6-1.8,3.5-2.1,6.2v0c0,0.3-0.1,0.6-0.1,0.9
					c0,0,0,0,0,0c-0.1,1-0.2,2.1-0.4,3.4c-0.7,5-1.1,7.5-2.8,9.5c-1.7,2-3.9,2.9-6.5,3.5c-1.4,0.3-3,0.6-4.7,0.8
					c-3.7,0.5-5.1,0-5.9-0.7c-0.9-0.7-1.3-1.8-2.1-3.9c-0.9-2.4-1.6-4.1-1.6-6.4c0-2.6,0.7-4.2-0.4-5.4c-0.4-0.4-0.9-0.6-1.2-0.7
					c-0.1-1.7-0.2-3.3-0.3-5c0.6-0.4,1.4-1,2.4-1.7c3.3-2.4,5-3.6,5.2-3.8c0.5-0.2,2.2-1.1,4.9-1.8c1.1-0.3,2.3-0.5,3.7-0.7
					c0,0,0.1,0,0.1,0c0.3,0,0.5-0.1,0.8-0.1c4.5-0.4,5.3,0.6,9.5,0.4c2.4-0.1,5.9-0.5,10.2-2.3c2.6-1.5,6.3-3.2,10.9-4.6
					c7.1-2.1,12.8-2.1,16-2.1c6.5,0,11.9,1,15.8,2c6.7,3.5,13.3,7.1,20,10.6c0.4,0.2,0.8,0.4,1.2,0.6
					C420.2,291.7,420.7,292,421.2,292.3z"/>
				<path class="st10" d="M336.9,302c-4.5-2-9-4.1-13.4-6.1"/>
				<path class="st9" d="M336.9,302c-4.5-2-9-4.1-13.4-6.1"/>
				<path class="st10" d="M337.2,305.6c-4.9-1.6-9.8-3.2-14.7-4.8"/>
				<path class="st9" d="M337.2,305.6c-4.9-1.6-9.8-3.2-14.7-4.8"/>
				<path class="st9" d="M326.9,314.8c-1.1-1.6-2.7-4.4-3.5-8.2c-0.7-3.2-1.7-7.8,0.8-11.8c1.8-2.8,4.5-4,6.4-4.8
					c1-0.4,8.8-3.7,12.5,0c1,1,1.4,2.2,1.6,3.1"/>
				<path class="st9" d="M357.3,291.9c1.2,1.8,2.5,4.2,3.6,7.2c0.9,2.6,1.5,4.9,1.7,6.8l0.2,1.5"/>
				<path class="st9" d="M356.6,288.7c0.2-0.5,0.6-1.8,1.6-3.1c1.7-2.1,4-3,8.6-4c4.8-1.1,8.3-1.8,13.8-1.9c6.5,0,10.2-0.1,11.9,2.4
					c1,1.4,1.1,3.1,1.3,5.8c0.1,0.9,0.2,2.7-0.3,6c-0.7,5.1-1,7.6-2.4,9.7c-2.1,3.1-5.3,4.2-7.1,4.8c-2.5,0.9-5.2,0.9-10.7,0.8
					c-5.4-0.1-8.2-0.1-9.5-0.8c-3.7-2-5-5.9-6.6-10.9C355.6,292.4,356.2,289.8,356.6,288.7z"/>
				<path class="st9" d="M343.3,288.7c-1.6-1.5-4-1.3-7.4-0.9c-1.2,0.1-4.2,0.5-7.7,2.2c-2.5,1.2-4.7,2.3-6,4.8
					c-0.7,1.4-0.9,2.8-1,3.5c-0.2,1.5-0.1,2.7,0.2,4.9c0.2,1.8,0.5,3.2,0.7,4c0.4,2,0.8,3.7,1.8,5.7c0.7,1.4,1.1,2.2,1.9,2.7
					c1,0.6,2.1,0.5,4,0.3c0.7-0.1,3-0.4,6.2-1.6c1.8-0.7,2.7-1.1,3.8-2c0.3-0.2,1.2-1.1,2.2-2.9c0.8-1.4,1.3-2.8,1.9-6.3
					c0.7-3.5,1-5.3,1.1-6.8C344.9,292.9,345,290.3,343.3,288.7z"/>
				<path class="st11" d="M381.6,293.4c0,1.8-1.5,3.3-3.3,3.3s-3.3-1.5-3.3-3.3s1.5-3.3,3.3-3.3S381.6,291.6,381.6,293.4"/>
				
					<ellipse transform="matrix(0.2298 -0.9732 0.9732 0.2298 5.9053 594.2235)" class="st9" cx="378.4" cy="293.4" rx="3.3" ry="3.3"/>
				<path class="st12" d="M412.4,277.7l-0.1,0.1c-4.1-7.1-8.6-12.8-13.1-18.4c-4.8-6.1-7.8-8.9-11.8-11.1
					c-2.3-1.3-11.4-6.2-22.9-3.6c-10.7,2.4-20.8,12.2-23.3,20.7c-0.7,2.3,0,1.6-1.4,6.3c-1.4,4.9-2,6.9-3.4,11.7l-0.1,0
					c0.8-2.9,1.4-5.1,2.1-8.7c1.2-5.4,1-5.6,2.1-10.9c1.3-6.1,2-9.2,3.2-11.6c2.6-5.1,6.1-8,7.2-8.8c2.8-2.2,5.4-3.2,7.3-3.9
					c3.3-1.3,10.3-3.9,17.7-2.1c5.1,1.2,8.2,4,13.6,9.1c3.4,3.2,8,8.1,15.2,19C406,267.2,408.8,271.5,412.4,277.7"/>
				<path class="st13" d="M337.1,305.6c0,0.5,0,1.1-0.1,1.6c-0.1,0.9-0.3,2.5-0.7,3.6c0,0.1,0,0.1-0.1,0.2c0,0.1-0.1,0.1-0.1,0.2
					c0,0.1,0,0.1-0.1,0.2c0,0,0,0,0,0c-0.2,0.5-0.4,0.8-0.7,0.8c-1.3,0.1-2.6-6.6-2.9-8c0,0,0,0,0-0.1c-0.3-1.4-0.5-2.9-0.7-4.4
					c-0.4-3-0.5-6.2-0.4-9.9c0-0.4,0-0.7,0-1.1v0c0-0.4,0-0.7,0-1.1c1.1-0.3,2.3-0.5,3.7-0.7c-0.1,0.4-0.2,0.7-0.3,1
					c-0.1,0.4-0.2,0.6-0.3,0.9c-0.4,1-0.5,1.5-0.5,2.5c0,0.3,0,0.6,0,0.8v0c0.2,2.7,1.6,3.4,2.7,8.8c0.1,0.4,0.1,0.7,0.2,1v0
					c0,0,0,0.1,0,0.1v0C337,303.3,337.1,304.4,337.1,305.6"/>
				<path class="st9" d="M421.2,292.3c0,0.9-0.1,1.8-0.1,2.6c-0.7-1.7-1.1-2.7-1.5-3.5C420.2,291.7,420.7,292,421.2,292.3z"/>
				<path class="st9" d="M427.4,345c-0.2,1.5-0.4,3.1-0.5,4.7C426.9,348.1,427,346.6,427.4,345z"/>
				<path class="st9" d="M431.8,319.6c-0.4-1-0.8-2-1.3-3C431.1,317.3,431.8,318.5,431.8,319.6z"/>
				<path class="st9" d="M435,329.2l-1.3,1c-0.2,0.4-0.6,1-1.2,1.5c-0.2,0.2-1.4,1.1-2.9,1c-0.6,0-1-0.2-1.4-0.4"/>
				<path class="st9" d="M426.5,331.3c-0.2-0.1-0.5-0.1-0.7,0c-0.1,0-0.1,0.1-0.2,0.1c0,0-0.1,0.1-0.1,0.1"/>
				<path class="st9" d="M425.4,331.6c-0.2,0.2-0.3,0.3-0.4,0.5"/>
				<path class="st9" d="M426.3,314.6c0.5-0.7,1.1-1.3,1.6-2l1.1-1.8"/>
				<path class="st12" d="M431.8,319.6c0,0.3-0.1,0.6-0.2,0.8c-0.2,0.5-0.7,0.9-1.1,1.2c-0.2,0.1-1.7,1.3-2.4,0.8
					c-0.6-0.4-0.5-1.8,0.2-2.7c0.6-0.8,1.2-0.6,1.6-1.3c0.6-1-0.2-2.1,0-2.2c0.1,0,0.3,0.2,0.6,0.5
					C431.1,317.3,431.8,318.5,431.8,319.6"/>
				<path class="st14" d="M317.8,459.5c-14.1,0.1-28.3,0.1-42.4,0.2c0.2-11.9,0.4-23.8,0.5-35.7c12.6-8.8,25.1-17.6,37.7-26.4
					c2.4,6.6,4.8,15.2,6,25.3C321.4,438,319.7,450.7,317.8,459.5"/>
				<path class="st15" d="M317.8,459.5c1.9-8.8,3.6-21.5,1.8-36.6c-1.2-10.1-3.6-18.7-6-25.3c-0.3-0.9-0.6-1.7-1-2.5
					c7-3.2,11.7-5.8,14.7-7.6c5.8-3.5,8.7-5.2,8.7-5.2c0.3-0.3,1.9-2,4.3-2.5c0.6-0.1,1.6-0.3,1.6-0.1c0,0.2-0.8,0.5-1.2,0.8
					c-0.2,0.2-0.4,0.4-0.5,0.6h0v0c-0.8,1.7,0.3,5,1,7.1c2.5,7.6,3.8,11.5,5.7,15c0.4,0.7,1.6,2.8,3.3,5.3c1.9,2.8,3.5,4.7,4.2,5.5
					c3.7,4.6,5.3,8.6,7.5,12.6c4.1,7.4,9.1,12.1,13.7,16.4c4.2,3.9,9.6,8.9,18,12.7c3.2,1.5,6.1,2.8,9.6,3.6
					C374.8,459.3,346.3,459.4,317.8,459.5"/>
				<path class="st15" d="M403.3,459.2c4.1,0,8.2,0,12.3,0c-2.3,0.5-4.8,0.8-7.6,0.6C406.2,459.7,404.7,459.5,403.3,459.2"/>
				<path class="st9" d="M300.7,477.1c0,0.1,0,0.1,0,0.2"/>
				<path class="st15" d="M494,458.8c-26.2,0.1-52.3,0.2-78.5,0.3c6-1.3,10.3-4.1,12.1-5.3c5.3-3.5,8.2-7.4,10.3-10.3
					c6.5-8.9,8.5-17.4,10.3-25.6c4.2-18.6,1.5-30.5-1.2-32.3c-1.7-1.1-3.2-2.3-5-3.3c-0.7-0.4-1.5-0.9-1.5-1.1
					c0.1-0.3,2.8,0.3,3.1,0.4c1.6,0.4,3.9,1,6.6,2.7c3.3,2,2.9,3,5.5,4.7c3.4,2.3,4.8,1.2,9.4,3.1c4.2,1.8,6.9,4.4,8.3,5.8
					c1,1,1.9,2.1,2.7,3.1v0c1.8,2.3,2.9,4.5,3.7,6.2c8.4,17.3,12.9,26.4,14.2,35.9v0c0.1,0.5,0.1,1.1,0.2,1.6
					C494.6,448,494.8,452.9,494,458.8"/>
				<path class="st16" d="M426.9,355c0.4,4.8,0.1,10.6,0.9,15.5l-2.1,0.2c-5,6.2-9.4,10.8-12.6,13.9c-3.2,3.2-5.3,4.9-7.8,8.6
					c-2.3,3.5-2.4,4.8-5.5,10.3c-3.5,6.2-5.3,9.4-8,10.7c-3.7,1.8-7.6,0.9-11.9-0.1c-4.4-1.1-9.2-2.2-11.7-6
					c-2.3-3.5-0.7-6.2-1.7-12.2c-0.9-5.2-3-9.6-5.5-13.1l0-0.5c1.7,0.2,3.1,0.2,3.4,0.2c11.2-0.2,13.3-0.1,15.5-0.7h0c0,0,0,0,0,0
					c2.2-0.3,4.2-0.8,6.4-1.6c1.9-0.7,3.6-1.4,5.2-2.3l0,0c4.8-2.5,8.4-5.8,11.9-9c5.3-4.8,9.3-8.4,12.2-14.6
					c4.5-9.5,7.7-16.3,8.4-20.4c0.1-0.4,0.3-1.8,1.2-2.4c0,0,0,0,0,0c0,0,0.1-0.1,0.1-0.1v0c0,0,0.1,0,0.1-0.1
					c0.3-0.1,0.5-0.1,0.8-0.1h0c0.5,0.2,1,0.6,1.7,0.9c0,0,0,0,0,0c0,0.1,0.1,0.1,0.1,0.1c0.7,2.9-0.3,7.4-0.9,12.6c0,0,0,0,0,0
					c-0.3,1.5-0.5,3.1-0.5,4.7C426.8,351.4,426.8,353.2,426.9,355"/>
				<path class="st9" d="M379.6,381.8c-3.9,0.6-8.2,0.5-14.3,0.5c-3.1,0-5.7-0.2-7.9-0.4"/>
				<path class="st9" d="M347.5,377.1l0.2-0.1c0.8,1.1,2.2,2.3,3.2,3.5"/>
				<path class="st9" d="M428.2,332.3c-0.2-0.3-0.9-0.9-1.7-0.9"/>
				<line class="st9" x1="340.4" y1="380.9" x2="340.2" y2="381"/>
				<path class="st14" d="M447.4,385.6c-1.7-1.1-3.2-2.3-5-3.3c-0.7-0.4-1.5-0.9-1.5-1.1l-0.4-0.1c-1.2-1.1-4.7-2.8-10.6-5.4
					c-0.1,0-1.1-0.8-1.5-1.9c-0.3-1-0.6-2.1-0.7-3.2l-2.1,0.2c-5,6.2-9.4,10.8-12.6,13.9c-3.2,3.2-5.3,4.9-7.8,8.6
					c-2.3,3.5-2.4,4.8-5.5,10.3c-3.5,6.2-5.3,9.4-8.1,10.7c-3.7,1.8-7.6,0.9-11.9-0.1c-4.4-1.1-9.2-2.2-11.7-6
					c-2.3-3.5-0.7-6.2-1.7-12.2c-0.9-5.2-3-9.6-5.5-13.1l0-0.5c-1-0.1-2.1-0.2-3.3-0.4c0,0,0,0-0.1,0c-2.3-0.2-4.3-0.4-6.2-0.7
					c-0.2-0.2-0.4-0.5-0.6-0.7c-0.2-0.1-0.4-0.2-0.6-0.3c-1.3-0.9-2.2-1.8-2.8-3l-3.6,2c-0.3,0.1-0.6,0.2-0.9,0.3
					c-0.7,0-1.3,0.2-1.8,0.7c-0.5,0.2-0.9,0.7-1.1,1.2c-0.2,0.5-0.2,1-0.2,1.5c0,0.6,0,1.2,0.1,1.8c0.2,1.2,0.7,2.3,1.1,3.4
					c0.2,0.5,0.4,1,0.6,1.6c0.4,1.8,0.9,3.5,1.7,5.1c0.3,0.6,0.6,1.1,0.9,1.7c0,0.1,0,0.1,0,0.2c0.2,0.4,0.3,0.8,0.5,1.2
					c-0.1,0.1-0.1,0.1,0,0.3c0.5,1.3,1,2.7,1.7,3.9c0,0,0,0.1,0,0.2c0.5,1.3,1.3,2.5,2.1,3.7c0.9,1.3,1.8,2.5,2.7,3.8
					c0.3,0.4,0.5,0.7,0.8,1.1c0,0.1,0,0.1,0.1,0.2l0.5,0.6c0,0,0,0.1,0,0.1c0,0.2,0.2,0.4,0.5,0.5c0.1,0.2,0.2,0.4,0.3,0.6
					c0.5,0.8,1.1,1.4,1.7,2.1c0.8,0.9,1.5,2,2.2,3.1c0.8,1.6,1.5,3.3,2.4,4.9c0.6,1,1.2,2.1,1.9,3c0.1,0.2,0.1,0.5,0.2,0.7
					c0.1,0.4,0.3,0.8,0.6,1.2c0.1,0.1,0.1,0.2,0.2,0.2c0.2,0.4,0.4,0.9,0.6,1.3c0.8,1.5,1.8,2.8,2.9,4.1c0.8,1,1.7,2,2.6,2.9
					c0,0,0,0,0,0.1c0.2,0.5,0.5,0.9,1,1.1c0.2,0.2,0.3,0.5,0.5,0.7c0.8,0.8,1.6,1.6,2.4,2.4c1.1,1,2.1,2,3.3,2.9
					c0.3,0.3,0.6,0.6,0.9,0.9c1.4,1.2,2.6,2.6,4,3.8c1.5,1.3,3.2,2.4,4.9,3.4c0.1,0.1,0.2,0.1,0.3,0.2c0.1,0.1,0.2,0.2,0.3,0.3
					c0,0,0,0,0,0c0,0,0,0,0.1,0c0.1,0.1,0.1,0.1,0.2,0c3,2.1,6.3,3.8,9.8,5.1c2.3,1,4.6,1.9,7.2,2.5c4.1,0,8.2,0,12.3,0
					c6-1.3,10.3-4.1,12.1-5.3c5.3-3.5,8.2-7.4,10.3-10.3c6.5-8.9,8.5-17.4,10.3-25.6C452.8,399.3,450.2,387.4,447.4,385.6
					 M418.5,403.8c-1.1,5.1-3.5,8.5-4.2,9.4c-1.1,1.4-2.1,2.5-3,3.2c2.1-8.3,4.3-16.6,6.4-24.9C418.5,393.8,419.6,398.3,418.5,403.8
					 M432.6,400.8c-0.2,1.3-0.7,3.5-2.7,6c-1.4-8.2-2.8-16.4-4.2-24.5c0.9,1.9,1.9,4.2,3.1,6.7C432.1,396.3,432.8,398.3,432.6,400.8
					"/>
				<path class="st16" d="M418.1,403.8c-1.1,5.1-3.5,8.5-4.2,9.4c-1.1,1.4-2.1,2.5-3,3.2c2.1-8.3,4.3-16.6,6.4-24.9
					C418.2,393.8,419.3,398.3,418.1,403.8"/>
				<path class="st8" d="M343.8,300.7c-0.9,0.2-1.7,0.4-2.2,0.6c-0.5,0.1-0.7,0.2-0.9,0.1c-0.7-0.3-0.8-1.8-0.8-2.3L343.8,300.7z"/>
				<path class="st16" d="M432.2,400.8c-0.2,1.3-0.7,3.5-2.7,6c-1.4-8.2-2.8-16.4-4.2-24.5c0.9,1.9,1.9,4.2,3.1,6.7
					C431.8,396.3,432.5,398.3,432.2,400.8"/>
				<path class="st9" d="M440.8,382.4c-4.7-1.3-6.4-0.6-7.1,0.3c-1.2,1.5,0.2,3.9-0.8,8.9c-0.2,1.1-0.5,2-0.7,2.5"/>
				<path class="st17" d="M343.9,325.1c-1.2-1-1.7-2.3-1.3-2.7c0.4-0.5,1.3,0.6,2.4,1.7c1.2,1,2.1,1.7,1.7,2.1
					C346.3,326.7,345.1,326.2,343.9,325.1"/>
				<path class="st17" d="M356.3,320.5c-2.7,0.4-5.2,2.1-5,2.8c0.1,0.4,1.1,0.5,2.1,0.5c1.3,0.1,1.6-0.2,2.6,0
					c1.1,0.2,1.2,0.6,2,0.7c1.2,0.1,2.8-0.6,3-1.6c0.1-1-1.3-1.8-1.5-1.9C358.4,320.2,357.1,320.4,356.3,320.5"/>
				<path class="st18" d="M380.4,293.1c0,1.2-1,2.1-2.1,2.1c-1.2,0-2.1-1-2.1-2.1c0-1.2,1-2.1,2.1-2.1
					C379.4,290.9,380.4,291.9,380.4,293.1"/>
				<path class="st11" d="M345,298.3c0,1.4-1.1,2.5-2.5,2.5s-2.5-1.1-2.5-2.5c0-1.4,1.1-2.5,2.5-2.5S345,297,345,298.3"/>
				
					<ellipse transform="matrix(0.2298 -0.9732 0.9732 0.2298 -26.5422 563.1165)" class="st9" cx="342.5" cy="298.3" rx="2.5" ry="2.5"/>
				<path class="st10" d="M344.5,298.2c0,0.8-0.6,1.4-1.4,1.4c-0.8,0-1.4-0.6-1.4-1.4c0-0.8,0.6-1.4,1.4-1.4
					C343.9,296.8,344.5,297.4,344.5,298.2"/>
				<path class="st19" d="M337.2,296.4c0.1-0.4,0.7-2.1,2.5-3.1c2.2-1.3,4.5-0.4,4.8-0.3"/>
				<path class="st20" d="M423.4,304.4c-0.9-0.3-1.8,0.1-2.6,0.5c-12.9,2.6-17.8,7.5-19.8,11.7c-2.5,5.3,0.4,8-2.1,15.4
					c-2.7,7.7-7.2,8.6-12,17.2c-3,5.4-5,10.7-5,15c0,15.5-4.2,16.7-3.2,17.5c2,1.6,7.8-1.1,13.4-4.1c1.3-0.7,6.4-2.9,13.3-9.3
					c2.3-2.1,5.2-4.6,7.7-7.7c6.2-7.6,8.8-15.4,10.8-21.4c2.9-8.9,2.7-15.3,2.6-20.7C426.5,313.5,426.2,305.4,423.4,304.4"/>
				<path class="st4" d="M325.4,327C325.4,326.9,325.4,326.9,325.4,327c-0.1-0.1-0.1-0.1-0.2-0.1c0,0-0.1,0-0.1,0
					c-0.1,0-0.1,0-0.2,0c-0.1,0-0.1,0.1-0.1,0.2l-0.1,0.3c0,0,0,0.1,0,0.1c0,0,0,0.1,0,0.1c0,0,0,0.1,0.1,0.1c0,0,0.1,0,0.1,0.1
					c0,0,0.1,0,0.1,0c0.1,0,0.1,0,0.2,0c0.1,0,0.1-0.1,0.1-0.2l0.1-0.3c0,0,0-0.1,0-0.1C325.5,327.1,325.5,327,325.4,327"/>
				<path class="st18" d="M337.2,302.8c-0.1-0.3-0.2-0.8-0.4-1.1c-0.2-0.3-0.7-0.5-1.1-0.6c-0.3-0.1-0.6-0.2-0.8-0.4
					c-0.4-0.3-0.8-0.4-1.3-0.6c-0.1,0-0.1,0-0.2-0.1c-0.1-0.1-0.3-0.1-0.4-0.2c-0.6-0.3-1.3-0.5-1.9-0.6c-0.1,0-0.1,0-0.2,0
					c0,0,0,0-0.1-0.1c-0.1,0-0.1,0-0.2,0c-0.2-0.3-0.5-0.5-0.8-0.6c-0.8-0.4-1.7-0.7-2.5-1c-0.4-0.2-0.8-0.4-1.2-0.6
					c-0.2-0.1-0.5-0.2-0.7-0.1c-0.2-0.1-0.3-0.2-0.5-0.3c-0.2-0.1-0.4-0.2-0.6-0.3c-0.1-0.1-0.1-0.1-0.2-0.1
					c-0.1-0.2-0.3-0.2-0.4-0.1c-0.6,0.4-0.7,1.3-0.9,1.9c-0.2,0.8-0.3,1.7-0.3,2.5c0,0.2,0.1,0.3,0.3,0.3c0.1,0.1,0.2,0.1,0.3,0.1
					c0,0,0.1,0,0.1,0c0,0.1,0.1,0.1,0.2,0.2c0.4,0.1,0.8,0.2,1.2,0.3c0,0.1,0.1,0.2,0.2,0.2c0.4,0.1,0.9,0.1,1.3,0.2
					c0,0.1,0.1,0.2,0.2,0.2c0.6,0.2,1.3,0.3,1.9,0.5c0.2,0.1,0.4,0.2,0.6,0.2c0.1,0,0.1,0,0.2,0c1,0.4,2,0.8,3,1.1
					c0,0,0.1,0,0.1,0.1c0.2,0.2,0.4,0.3,0.7,0.4c0.4,0.1,0.8,0.3,1.2,0.4c0.4,0.1,0.8,0.2,1.2,0.3c0.2,0,0.4,0.1,0.6,0.1
					c0,0,0.1,0,0.2,0c0.3,0.1,0.7,0.2,1,0.3c0.1,0.1,0.1,0.1,0.2,0.1c0.1,0,0.2,0,0.2-0.1c0.1-0.1,0.1-0.2,0.1-0.3
					c0-0.1,0-0.2,0-0.3C337.8,304.2,337.4,303.5,337.2,302.8"/>
				<path class="st13" d="M346.4,286.7c0.4-0.8-1.8-3.4-3.8-3.9c-1.6-0.5-3,0.1-3.8,0.4c-2.1,0.8-4,2.6-3.7,3.2
					c0.2,0.5,1.6-0.1,4.6-0.3C343.7,286,346.1,287.4,346.4,286.7"/>
				<path class="st13" d="M386.8,278.7c-4.5-0.4-7.6-0.2-8.6-0.2c-1.8,0.1-4.4,0.2-7.5,0.9c-5.4,1.1-8.1,2.8-8.4,2.3
					c-0.3-0.5,2-2.7,5.1-3.9c2.4-1,3-0.4,7.3-1.3c4.2-0.8,4.5-1.5,8-1.9c1.8-0.2,3.5-0.4,5.5-0.1c5.1,0.8,9.4,4.4,9,5.3
					C397,280.5,394.2,279.3,386.8,278.7"/>
				<path class="st12" d="M265.2,332.7c-0.4,0-0.4,0.6,0,0.6C265.6,333.3,265.6,332.7,265.2,332.7"/>
				<path class="st21" d="M428.8,316.6c0-0.1,0-0.1,0-0.2c0.1-0.2-0.1-0.4-0.3-0.4c-0.1-0.2-0.3-0.4-0.5-0.3
					c-0.3,0.1-0.4,0.5-0.1,0.7c0.1,0,0.1,0.1,0.2,0.1c0,0.1,0.1,0.1,0.1,0.2c-0.2,0.6-0.2,1.2-0.2,1.9c0,0.3,0.4,0.4,0.6,0.2
					C428.9,318.1,429,317.2,428.8,316.6"/>
				<path class="st21" d="M432.4,327.9c-0.1-0.2-0.2-0.5-0.3-0.7c0,0,0,0,0,0c-0.1-0.4-0.3-0.7-0.4-1c-0.1-0.3-0.5-0.1-0.6,0.1
					c-0.1,0-0.1,0-0.2,0c0,0,0,0,0,0c-0.2-0.2-0.5-0.3-0.8-0.2c-0.1,0-0.1,0.1-0.2,0.1c-0.1,0-0.1,0-0.2,0c0.1-0.1,0.1-0.1,0.2-0.2
					c0.1,0,0.2,0,0.3-0.1c0.3-0.1,0.6-0.1,0.8-0.3c0.2,0,0.3,0.1,0.5,0.2c0.2,0.1,0.5-0.1,0.4-0.3c-0.4-1.3-0.6-2.7-0.5-4.1
					c0-0.4-0.6-0.4-0.6,0c0,0.1,0,0.2,0,0.3c-0.1,0-0.1,0-0.2,0c-0.6,0.3-1.1,0.6-1.5,1.1c0,0-0.1,0.1-0.1,0.1
					c-0.3,0-0.7,0.3-0.6,0.6c0,0,0,0.1,0,0.1c0,0.1-0.1,0.2-0.1,0.3c0-0.3,0-0.6,0-0.9c0-0.2-0.4-0.4-0.5-0.2l-0.6,0.7
					c-0.1,0-0.3,0-0.4,0.2c-0.1,0.2-0.1,0.3-0.2,0.5c0,0.1,0,0.2,0,0.2c-0.1,0.4-0.1,0.8-0.2,1.2c0,0.2,0.1,0.4,0.4,0.4
					c0.3-0.1,0.5-0.3,0.5-0.6c0-0.2-0.1-0.2-0.2-0.3l0.1-0.8c0.1-0.1,0.2-0.3,0.3-0.4c0,0.5,0.1,1,0.2,1.4c0,0.2,0.1,0.4,0.2,0.6
					c0,0.1,0,0.2,0,0.3c0,0.5,0.2,0.9,0.5,1.2c0.4,0.4,1.1,0.5,1.6,0.3c0.2-0.1,0.3-0.2,0.2-0.4c0-0.1-0.2-0.3-0.4-0.2
					c-0.2,0.1-0.4,0.1-0.6,0.1c0.2,0,0.4-0.1,0.6-0.2c0.1,0,0.1,0,0.2,0c0,0,0.1,0.1,0.2,0.1c0.1,0.1,0.1,0.2,0.2,0.3
					c0.1,0.4,0.6,0.6,1,0.5c0.1,0.1,0.1,0.3,0.2,0.4C432,328.5,432.6,328.3,432.4,327.9 M431,323.6C431,323.5,431,323.5,431,323.6
					c0.1,0.3,0.2,0.7,0.3,1c-0.1,0-0.1-0.1-0.2,0l0-0.2c0-0.1-0.1-0.3-0.3-0.3c-0.2,0-0.4,0-0.5,0.1
					C430.4,323.9,430.7,323.8,431,323.6 M429.2,323.6c0.6-0.1,1.1-0.4,1.5-0.8c-0.1,0.2-0.3,0.4-0.5,0.5c-0.3,0.2-0.6,0.4-0.8,0.6
					c-0.1,0-0.1,0-0.2,0c0,0,0,0,0,0c0-0.1,0-0.1,0-0.2C429.2,323.7,429.2,323.7,429.2,323.6"/>
				<path class="st22" d="M427.5,324.6c0-0.1,0-0.2,0-0.2c0-0.1,0-0.3-0.1-0.3c0-0.2,0-0.4-0.1-0.5c-0.1-0.4-0.6-0.2-0.6,0.1
					c-0.1,0.9-0.2,1.9-0.3,2.8c0,0.2,0.1,0.3,0.2,0.3c-0.1,1-0.3,2-0.4,3c0,0.2,0,0.3,0.2,0.4c0.1,0,0.3-0.1,0.4-0.2l0.3-1.8
					c0,0.3,0,0.7-0.1,1c0,0.4,0.6,0.4,0.6,0C427.7,327.6,427.7,326.1,427.5,324.6"/>
				<path class="st12" d="M427.7,311.1c-0.1-0.5-0.3-0.9-0.4-1.4c0.1-0.1,0.1-0.2,0-0.3c-0.1-0.1-0.1-0.2-0.2-0.3
					c-0.1-0.4-0.2-0.8-0.4-1.2c-0.1-0.2-0.3-0.2-0.4-0.2c-0.2-0.5-0.5-0.9-0.7-1.4c0,0,0-0.1-0.1-0.1c-0.2-0.5-0.5-1-0.8-1.5
					c0,0-0.1-0.1-0.1-0.1c0-0.1,0-0.1,0-0.2c-0.4-1.1-0.7-2.1-1.1-3.2c0,0,0.1,0,0.1,0c0.1-0.1,0.2-0.3,0.1-0.4
					c-0.2-0.3-0.4-0.6-0.7-0.9c0,0,0-0.1,0-0.1c0-0.1-0.1-0.2-0.2-0.2c-0.2-0.2-0.4-0.5-0.5-0.7c-0.1-0.1-0.2-0.1-0.3-0.1
					c-0.2,0-0.5,0.3-0.3,0.5c0,0.1,0.1,0.1,0.1,0.2c0,0.1,0,0.1,0.1,0.2c0.1,0.4,0,0.8,0.1,1.2c0.1,0.5,0.2,0.9,0.4,1.4
					c0.3,0.7,0.8,1.4,1.3,2c0.3,1.3,0.8,2.7,1.4,3.9c0.1,0.2,0.2,0.2,0.3,0.1c0,0.1,0,0.1,0.1,0.2c0.2,1.2,0.3,2.4,0.8,3.5
					c0.2,0.3,0.7,0,0.5-0.3c-0.4-0.8-0.5-1.7-0.7-2.6c0.1,0.1,0.1,0.2,0.2,0.3c0.2,0.7,0.4,1.3,0.6,2
					C427.2,311.7,427.8,311.5,427.7,311.1 M422.9,301.8c-0.2-0.5-0.3-1-0.3-1.6c0.3,0.9,0.6,1.8,0.9,2.6
					C423.3,302.5,423.1,302.2,422.9,301.8"/>
				<path class="st12" d="M431.4,335.2c0-0.1,0-0.2,0-0.3c-0.1-0.1-0.2-0.2-0.4-0.2c-0.1,0-0.2,0-0.3,0.1c-0.3,0.3-0.6,0.7-0.8,1
					c0,0-0.1,0-0.1,0c-0.5,0.3-0.8,0.8-0.9,1.4c0,0.2,0.1,0.3,0.3,0.3c0.2,0,0.3-0.1,0.3-0.3c0,0,0-0.1,0-0.1c0,0,0.1,0.1,0.1,0.1
					c0.2,0,0.3-0.1,0.4-0.2c0,0,0-0.1,0-0.1c0,0,0.1,0.1,0.1,0.1c0.1,0,0.2,0,0.3-0.1c0.3-0.3,0.6-0.6,0.7-1c0.1,0,0.1-0.1,0.2-0.2
					C431.4,335.6,431.5,335.4,431.4,335.2"/>
				<path class="st22" d="M430.2,323.2C430.2,323.2,430.2,323.2,430.2,323.2"/>
				<path class="st22" d="M434.2,328.1c-0.1-0.9-0.3-1.7-0.5-2.5c-0.2-0.9-0.5-1.7-0.8-2.5c0.1-0.3,0-0.6-0.1-0.9
					c-0.3-0.6-0.6-1.2-0.9-1.8c-0.1-0.2-0.3-0.2-0.4-0.1c-0.1,0-0.2,0-0.2,0c-0.1,0.1-0.2,0.2-0.2,0.3c0,0,0,0,0,0.1
					c0,0.1,0,0.1,0,0.2c0,0.1,0.1,0.2,0.1,0.4c0.1,0.5,0.2,1,0.3,1.4c-0.1,0.1-0.1,0.1-0.1,0.2c0,0,0,0.1,0,0.1c0,0,0,0-0.1,0
					c-0.2,0.1-0.3,0.3-0.4,0.4c0,0,0,0,0,0c0,0-0.1,0-0.1,0.1c0-0.1,0.1-0.1,0.1-0.2c0-0.2,0-0.3-0.2-0.4c-0.1,0-0.3,0-0.4,0.2
					c0,0,0,0,0,0.1c0,0,0,0,0,0c0,0,0,0,0,0l0,0c0,0,0,0,0,0c0,0,0,0-0.1,0c0,0,0,0,0,0c0,0,0,0,0,0c0,0,0,0,0,0
					c-0.2,0.1-0.3,0.1-0.5,0.1c-0.4,0.1-0.9,0.6-0.7,1c0.1,0.1,0.2,0.2,0.3,0.1c0.2,0,0.3-0.1,0.5-0.1c0.1,0,0.2-0.1,0.2-0.2
					c0,0.1,0.1,0.1,0.1,0.2c0,0,0,0.1,0,0.1c0-0.1-0.1-0.1-0.2-0.1c-0.2,0-0.3,0.2-0.3,0.3c0-0.1-0.1-0.1-0.2-0.1
					c-0.2,0-0.3,0.2-0.3,0.4c0,0.2,0,0.3,0.2,0.4c0,0,0,0,0,0c-0.1,0-0.1,0-0.1,0.1c0-0.1-0.1-0.1-0.1-0.2c0,0-0.1,0-0.1-0.1
					c0,0,0,0,0,0c0.1-0.2,0-0.4-0.3-0.4c-0.2,0-0.3,0.2-0.3,0.4c0,0.1,0,0.3,0.1,0.4c0,0.1,0,0.1,0.1,0.2c0,0.1,0.1,0.1,0.1,0.2
					c0,0-0.1,0.1-0.1,0.1c0-0.1,0-0.1-0.1-0.2c0,0-0.1-0.1-0.2-0.1c0,0,0,0,0,0c0,0,0-0.1,0-0.1c0-0.1,0-0.1,0-0.2
					c0-0.1-0.1-0.2-0.1-0.3c0,0,0-0.1-0.1-0.1c0,0-0.1,0-0.1-0.1c0,0,0,0-0.1,0c0,0,0,0,0-0.1c0-0.2-0.1-0.2-0.2-0.3
					c-0.1-0.4-0.2-0.7-0.4-1.1c-0.2-0.3-0.5-0.1-0.6,0.2c-0.1,0.8-0.2,1.5-0.3,2.3c-0.1,0-0.2,0.1-0.2,0.3c0,1.4-0.2,2.8-0.7,4.2
					c-0.1,0.2,0,0.3,0.2,0.4c-0.1,0.3,0.2,0.5,0.4,0.4c0,0,0.1-0.1,0.1-0.1c0.5,0,0.9,0.2,1.3,0.5c0.3,0.3,0.6,0.5,1,0.7
					c0.7,0.3,1.4,0.3,2,0.1c0.3,0,0.6-0.2,0.9-0.4c0.4-0.2,0.7-0.4,0.9-0.8c0.1-0.1,0.2-0.1,0.2-0.2c0.1-0.1,0.1-0.2,0.1-0.3
					c0.1-0.1,0.2-0.1,0.3-0.2c0.2-0.1,0.2-0.4,0-0.5c0.1-0.1,0.1-0.3,0.1-0.4c0,0,0,0,0,0c0.1,0.1,0.2,0.1,0.3,0.1
					C434.3,329.5,434.3,328.7,434.2,328.1 M430.9,325.1C430.9,325.1,430.9,325.2,430.9,325.1C430.8,325.2,430.8,325.2,430.9,325.1
					c-0.1-0.1-0.2-0.1-0.3-0.1c-0.2,0-0.2,0.1-0.3,0.2c-0.2,0-0.4,0.1-0.6,0.1c0.1-0.1,0.1-0.2,0.1-0.3c0,0,0-0.1,0-0.1
					c0,0.1,0.1,0.1,0.2,0.1c0.2,0,0.3-0.2,0.3-0.3c0,0,0,0.1,0,0.1c0,0.1,0.1,0.1,0.2,0.1c0.1,0,0.2,0,0.2,0c0,0,0.1-0.1,0.1-0.1
					c0,0,0,0,0,0c0,0,0,0.1,0,0.1c0,0,0,0.1,0,0.1C430.9,325,430.9,325.1,430.9,325.1"/>
				<path class="st23" d="M434.3,329.8c0-0.1,0-0.1-0.1-0.1c0,0,0-0.1,0-0.1c0-0.1,0-0.1,0-0.2c0-0.1,0-0.1,0-0.2
					c0-0.1-0.1-0.1-0.1-0.2c-0.1,0-0.2-0.1-0.2,0c-0.1,0-0.1,0.1-0.2,0.1c0,0,0,0,0,0.1c0,0.1,0,0.1,0,0.2c0,0,0,0,0-0.1
					c0,0,0,0.1,0,0.1c0,0,0,0,0,0c-0.2,0-0.4,0-0.4,0.3c0,0,0,0,0,0.1c0,0,0,0,0,0.1c0,0.1,0,0.1,0,0.2c-0.1,0-0.1,0.1-0.2,0.2
					l-0.3,1c0,0,0,0-0.1,0.1c-0.1,0.1-0.2,0.3-0.3,0.5c-0.1,0-0.1,0-0.2,0.1c-0.6,0.8-1.7,1.2-2.7,0.9c0,0,0,0,0,0c0,0-0.1,0-0.1,0
					c-0.2-0.1-0.5-0.1-0.7-0.3c-0.2-0.1-0.5,0.1-0.4,0.3c0.3,1.6,0.3,3.1-0.1,4.7c0,0.1,0,0.2,0.1,0.3c-0.2,1.1-0.4,2.3-0.6,3.4
					c-0.1,0.2-0.1,0.5-0.2,0.7c0,0,0,0.1,0,0.1c0,0.1-0.1,0.3-0.1,0.4c0,0,0,0,0,0.1c0,0.1,0,0.1,0,0.2c-0.1,0.3-0.1,0.6-0.2,0.8
					c-0.1,0.4,0.5,0.5,0.6,0.2c0.1-0.4,0.2-0.7,0.3-1.1c0.4-0.8,0.8-1.6,1.2-2.3c0.1,0,0.2,0,0.2-0.2c0.4-0.9,0.8-1.8,1.4-2.7
					c0.6-0.8,1.3-1.6,1.8-2.4c0.2-0.4,0.4-0.8,0.6-1.2c0.2-0.3,0.3-0.6,0.4-0.9C434.3,332,434.5,330.9,434.3,329.8"/>
				<path class="st23" d="M428.4,310.7c-0.4-0.6-0.8-1.1-1.2-1.7c-0.2-0.8-0.5-1.6-1-2.3c-0.1-0.2-0.3-0.4-0.4-0.7
					c-0.3-0.7-0.6-1.3-0.8-2c-0.1-0.3-0.2-0.7-0.3-1c0-0.1-0.1-0.2-0.2-0.2c-0.5-1.1-0.9-2.3-1.4-3.4c0.1-0.1,0.2-0.2,0.2-0.3
					c-0.1-0.2-0.2-0.4-0.3-0.5c-0.2-1.2-0.6-2.3-1.4-3.3c-0.1-0.1-0.3-0.1-0.4,0c-0.1,0.1-0.1,0.3,0,0.4c0,0,0,0,0,0.1c0,0,0,0,0,0
					c-0.2,0-0.3,0.2-0.2,0.4l0.1,0.6c0,0,0,0,0,0c-0.1,0.3,0,0.5,0.1,0.8c0.1,0.2,0.2,0.4,0.2,0.7c-0.1,0.1-0.1,0.2-0.1,0.3
					c0.8,2.5,1.6,5.1,2.8,7.4c0.3,0.6,0.7,1.2,0.9,1.8c0.3,0.6,0.5,1.2,0.6,1.9c0.3,1.1,0.5,2.3,0.8,3.4v0c-0.1,0-0.1,0.1-0.1,0.2
					l0.1,0.6c0,0.4,0.5,0.4,0.6,0c0.1,0,0.3-0.2,0.2-0.4c0-0.1,0-0.2-0.1-0.3c0.1,0,0.2-0.1,0.2-0.1c0.1-0.1,0.2-0.3,0.3-0.4
					c0.1,0,0.1,0,0.2,0c0.2-0.1,0.3-0.2,0.2-0.4c0-0.1,0-0.1-0.1-0.2c0.1-0.2,0.2-0.4,0.3-0.5c0.1-0.1,0.1-0.2,0-0.3
					c0,0-0.1-0.1-0.1-0.1c0,0,0.1,0,0.1,0C428.4,311,428.5,310.8,428.4,310.7"/>
				<path class="st24" d="M430.6,316.5c0-0.6-0.1-1.1-0.5-1.5c0-0.3,0-0.5,0-0.8c0-0.2-0.1-0.3-0.3-0.3c-0.1,0-0.2,0.1-0.3,0.2
					c-0.3-0.9-0.7-1.7-1.3-2.4c0,0,0-0.1,0-0.1c0.1-0.2-0.1-0.3-0.2-0.4c-0.2,0-0.3,0.1-0.4,0.2l-0.6,1.7c0,0,0,0-0.1,0.1
					c-0.2,0.4-0.4,0.8-0.5,1.2c-0.1,0.1-0.1,0.2-0.2,0.3c-0.1,0.1,0,0.3,0.1,0.3c-0.1,1,0,2.1,0.2,3.1c0.1,1,0.2,1.9-0.1,2.9
					c-0.2,0.9-0.4,1.7-0.2,2.7c0,0.1,0.1,0.2,0.2,0.2c0,0,0,0,0,0c0.1,0.1,0.1,0.1,0.2,0.1c0.1,0,0.2,0,0.2-0.1l0.2-0.3
					c0.2,0.1,0.4,0.1,0.5-0.1c0-0.2,0-0.3,0.1-0.5c0.5,0.2,1.1,0.3,1.6-0.1c0.1-0.1,0.2-0.3,0.1-0.4c-0.1-0.1-0.3-0.2-0.4-0.1
					c0,0,0,0-0.1,0c0,0,0,0,0,0c0,0-0.1,0-0.1,0c0,0-0.1,0-0.1,0c0,0-0.1,0-0.1,0c0,0-0.1,0-0.1,0c0,0-0.1,0-0.1,0
					c-0.1,0-0.1-0.1-0.2-0.1c-0.2-0.1-0.3-0.3-0.4-0.5c0-0.4,0.1-0.8,0.1-1.3c0,0,0,0,0,0c0.2-0.4,0.5-0.8,0.9-1.2
					c0.1,0.1,0.3,0.1,0.4,0c0.6-0.6,1.1-1.3,1.3-2.1c0-0.1,0.1-0.3,0.1-0.4C430.6,316.7,430.6,316.6,430.6,316.5 M428.2,318.5
					c-0.1,0.1-0.1,0.1-0.2,0.2c0-0.1,0-0.2,0-0.3c0-0.4,0-0.9-0.1-1.3c0,0,0-0.1,0.1-0.1c0,0,0,0,0,0c0,0,0.1,0,0.1-0.1
					c0,0,0,0,0-0.1c0,0,0-0.1,0-0.2c0,0,0-0.1,0-0.1c0-0.1,0-0.1-0.1-0.1c0,0-0.1-0.1-0.1-0.1c0,0-0.1-0.1-0.1-0.1c0,0-0.1,0-0.1,0
					c0.1,0,0.1-0.1,0.1-0.1c0.1-0.2,0.1-0.3,0.1-0.5c0.5,0.2,0.7,0.8,0.7,1.5C428.7,317.6,428.5,318.1,428.2,318.5"/>
				<path class="st22" d="M432.5,329.9c-0.1-0.4-0.7-0.2-0.6,0.2c0.1,0.4,0.2,1,0,1.4c-0.1,0.2-0.2,0.2-0.4,0.3
					c0-0.2-0.4-0.4-0.6-0.1c-0.5,0.6-1.4,0.3-2,0c-0.4-0.2-0.8-0.3-1.2-0.5c-0.2-0.1-0.4-0.2-0.6-0.3c-0.1,0-0.2-0.1-0.3-0.1
					c0,0-0.1,0-0.1-0.1c0,0,0,0,0,0c0.1-0.2-0.1-0.3-0.2-0.4c-0.1-2.1,0.9-4.1,0.5-6.1c-0.1-0.4-0.7-0.2-0.6,0.2
					c0.4,2.2-0.8,4.3-0.5,6.5c0,0.2,0.2,0.3,0.4,0.3c0.2,0.2,0.5,0.3,0.7,0.4c0.3,0.1,0.5,0.2,0.8,0.3c0.7,1,2,1.1,3,0.8
					c0.6-0.1,1.3-0.3,1.6-0.8C432.7,331.2,432.7,330.5,432.5,329.9"/>
				<path class="st13" d="M448.9,309.1c-0.3-5.8-2.3-6.1-2.3-12.2c0-5.6,1.7-7,1.8-11.3c0.1-3.5-0.9-7.2-6.6-15.7
					c-6.3-9.5-10.8-16.2-19.7-23.2c-10.1-8-19.5-11.4-25.8-13.6c-11.4-4-18.8-6.5-28.6-4.8c-2.4,0.4-15.1,2.8-24.1,13.8
					c-6.3,7.6-7.9,15.8-10.2,27c-1.2,5.9-1.5,10.4-1.8,15c-0.1,1.2-0.1,2.4-0.2,3.5c1.1-0.3,2.3-0.5,3.7-0.7c0.3-0.8,0.6-1.7,1-3
					c0.1-0.2,0.1-0.4,0.2-0.6c0.8-2.9,1.4-5.1,2.1-8.7c1.2-5.4,1-5.6,2.1-10.9c1.3-6.1,2-9.2,3.2-11.6c2.6-5.1,6.1-8,7.2-8.8
					c2.8-2.2,5.4-3.2,7.3-3.9c3.3-1.3,10.3-3.9,17.7-2.1c5.1,1.2,8.2,4,13.6,9.1c3.4,3.2,8,8.1,15.2,19c1,1.5,2.9,4.4,5.4,8.6
					c0,0.1,0,0.1,0,0.2c0.8,2.7,2.4,5,4.1,7.2c0.1,0.4,0.3,0.9,0.6,1.2c0.2,0.6,0.5,1.1,0.8,1.6c0.3,0.6,0.6,1.3,0.9,1.9
					c0.2,0.6,0.5,1.3,0.8,1.9c0,0.1,0,0.2,0,0.2c0,0.1,0.1,0.2,0.2,0.3c0,0,0,0.1,0,0.1c0,0.1,0,0.1,0.1,0.2c0,0,0,0.1,0,0.1
					c0,0,0,0.1,0,0.1c0.1,0.3,0.2,0.5,0.4,0.8c0.1,0.3,0.3,0.6,0.4,0.9c0,0.1,0.1,0.1,0.2,0.1c0.1,0.1,0.1,0.1,0.3,0.2
					c0.1,0.1,0.2,0.1,0.3,0.1c0,0,0,0,0,0.1c0,0.3,0.3,0.3,0.4,0.3c0,0.1,0,0.1,0.1,0.2c0.5,0.3,1.1,0.6,1.6,0.9
					c0,0.9-0.1,1.8-0.1,2.6c0.5,1.3,1.3,3,2.2,5.2c0.4,1.3,0.9,2.5,1.5,3.7c0,0,0,0.1,0,0.1c0.2,0.3,0.3,0.7,0.5,1
					c0.2,0.4,0.4,0.8,0.6,1.2c1,2.4,2.3,5.1,3.7,8.4c0.3,0.7,0.6,1.4,0.9,2.1c0.5,0.6,1.2,1.7,1.2,2.7c-0.1,0.4-0.1,0.9,0.1,1.3
					c0.1,0.4,0.4,0.8,0.6,1.2c0.2,0.5,0.4,1,0.6,1.5c0.4,1.3,0.8,2.6,1,3.9c0.2,1.2,0.2,2.4,0.1,3.5c-0.4,1.7-1.1,3.2-1.8,4.8
					c-0.6,0.8-1.2,1.2-2.1,2.5c-1,1.4-1.8,2.9-2.3,4.5c-0.4,0.5-0.7,1-1,1.5c-0.4,1-0.3,2.3-0.3,3.4c-0.1,2.4-0.1,4.8,0,7.2
					c0,0.2,0.2,0.4,0.4,0.3c0,0,0.1,0,0.1-0.1c0,0,0,0,0.1,0c0,0,0,0,0,0c0,0,0,0,0,0c0.1,0,0.2,0,0.3,0c0.5-0.2,0.9-0.6,1.2-1
					c0.8-0.5,1.6-1,2.4-1.5c1.5-4.6,3.3-8,4.6-10.4c1.8-3.1,2.8-4.1,5-7.9c0.9-1.5,2.7-4.7,4.3-8.6
					C447.1,320.8,449.2,315.5,448.9,309.1"/>
				<path class="st13" d="M337.6,305.9C337.6,305.9,337.6,305.9,337.6,305.9c0-0.1,0-0.1,0-0.1c0,0,0,0,0,0c0,0,0,0,0-0.1
					c0-0.1,0-0.1-0.1-0.2c-0.1-0.1-0.2-0.2-0.4-0.2c-0.1,0-0.2,0.1-0.2,0.1c-0.1,0-0.2,0-0.3,0c-0.1,0-0.2,0-0.2,0.1
					c-0.1,0.1-0.1,0.1-0.1,0.2c0,0.1,0,0.2,0.1,0.2c0,0,0,0,0.1,0c0,0,0,0,0,0c0,0.2,0.1,0.3,0.2,0.3c0,0.4-0.1,0.9-0.2,1.3
					c0,0.3-0.1,0.5-0.2,0.8c0,0.1,0,0.2-0.1,0.3c-0.1,0.1-0.1,0.3-0.2,0.4c-0.1,0.1,0,0.2,0,0.3c0,0.1-0.1,0.2-0.1,0.3
					c-0.2,0.4-0.3,0.8-0.6,1.1c-0.3,0.3,0.1,0.7,0.4,0.4c0.2-0.2,0.4-0.5,0.5-0.8c0.2-0.4,0.3-0.7,0.4-1.1c0.1-0.2,0.1-0.4,0.2-0.6
					c0.3-0.7,0.5-1.4,0.5-2.2c0,0,0,0,0-0.1c0,0,0-0.1,0-0.1C337.6,306.2,337.6,306.1,337.6,305.9
					C337.6,306,337.6,305.9,337.6,305.9z"/>
				<path class="st18" d="M337.6,305.1c0-0.1-0.1-0.1-0.1-0.2c-0.1-0.1-0.2-0.1-0.3-0.2c0,0,0,0-0.1,0c0,0,0-0.1-0.1-0.1
					c0,0-0.1,0-0.1-0.1c-0.1,0-0.2,0-0.2,0c0,0,0,0,0,0c-0.1,0-0.1-0.1-0.2-0.1c-0.1,0-0.2-0.1-0.2,0c-0.1,0-0.1,0.1-0.2,0.1
					c-0.1,0.1,0,0.3,0.1,0.4c0.1,0,0.1,0.1,0.2,0.1c0.1,0,0.1,0.1,0.2,0.1c0,0,0.1,0.1,0.1,0.1c0.1,0,0.1,0.1,0.2,0.1
					c0.1,0,0.1,0,0.2,0.1c0,0,0,0,0,0c0,0,0,0,0,0c0,0,0,0,0,0c0.1,0,0.1,0.1,0.2,0.1c0.1,0,0.2,0,0.2-0.1c0,0,0.1-0.1,0.1-0.1
					c0,0,0-0.1,0.1-0.1C337.6,305.2,337.6,305.1,337.6,305.1"/>
				<path class="st4" d="M337.5,301.7c0,0-0.1-0.1-0.1-0.1v0c0-0.1,0.1-0.2,0.1-0.3c0,0,0,0,0,0c0-0.1,0.1-0.1,0-0.2
					c0-0.1-0.1-0.1-0.1-0.2c-0.1,0-0.2-0.1-0.2,0c-0.1,0-0.1,0.1-0.2,0.1c-0.1,0.2-0.2,0.4-0.2,0.6c0,0.1,0,0.2,0.1,0.3
					c0,0,0.1,0.1,0.1,0.1c0,0,0,0,0,0l0,0c0,0,0,0,0,0c0,0.1,0.1,0.3,0.3,0.2c0.2,0,0.3-0.1,0.3-0.3
					C337.6,301.9,337.5,301.8,337.5,301.7"/>
				<path class="st18" d="M421.1,292.7C421.1,292.7,421.1,292.7,421.1,292.7c0-0.1,0.1-0.1,0.1-0.2c0,0,0-0.1,0-0.1c0,0,0-0.1,0-0.1
					c0,0,0-0.1,0-0.1c0,0-0.1-0.1-0.1-0.1c0,0-0.1,0-0.1,0c0,0-0.1,0-0.1,0c0,0-0.1,0-0.1,0c0,0,0,0,0,0c0,0,0,0,0,0c0,0,0,0,0,0
					c0,0,0,0,0,0c-0.4-0.4-1.1-0.7-1.7-0.9l-2.9-1.4c0-0.1,0-0.2-0.1-0.3c-0.6-0.3-1.2-0.6-1.9-0.9c-0.1,0-0.1,0-0.2,0
					c-0.1-0.1-0.1-0.1-0.2-0.2c-0.8-0.4-1.7-0.8-2.5-1.3c-0.1-0.1-0.2-0.3-0.4-0.3c-0.4-0.2-0.8-0.3-1.1-0.5c0,0-0.1-0.1-0.1-0.1
					c-0.8-0.4-1.5-0.8-2.3-1.2c-0.2-0.1-0.5-0.3-0.8-0.4c0,0,0,0,0,0l-0.1-0.2c-0.1-0.1-0.2-0.2-0.4-0.2c-0.3-0.1-0.6-0.2-0.9-0.3
					c0,0-0.1-0.1-0.1-0.1c0,0-0.1-0.1-0.1-0.1c-0.1,0-0.1-0.1-0.2-0.1c-0.9-0.5-1.8-1.1-2.6-1.7c-0.3-0.2-0.7-0.3-1-0.2
					c-0.2-0.2-0.5-0.4-0.7-0.5c-0.8-0.5-1.7-0.9-2.6-1c-0.1-0.1-0.1-0.2-0.2-0.2c-0.2-0.1-0.5-0.1-0.8-0.2c-0.3-0.1-0.6-0.1-0.8-0.2
					c-1.1-0.2-2.1-0.4-3.2-0.5c-0.5-0.2-0.9-0.3-1.5-0.3c-0.1,0-0.2,0-0.2,0.1c-1-0.2-2.1-0.3-3.1-0.3c-0.3-0.1-0.6-0.1-0.9-0.1
					c-0.9,0-1.7-0.1-2.6-0.2c-0.1,0-0.2,0.1-0.3,0.2c-0.4,0-0.8-0.1-1.3-0.1c-0.1,0-0.2,0-0.2,0.1c-0.1,0-0.1,0-0.2,0
					c-0.1,0-0.1,0-0.2,0.1c-0.3,0-0.6,0-0.8,0c-0.1,0-0.2,0-0.3,0c-0.1,0-0.1,0-0.1,0c-0.3,0-0.6,0-0.9,0c-0.1,0-0.1,0-0.2,0
					c-0.1,0-0.1,0-0.2,0.1c-0.4,0-0.8,0-1.2,0c-0.7-0.1-1.4-0.1-2,0c-0.2,0-0.2,0.1-0.3,0.2c-0.1,0-0.1,0-0.2,0
					c-0.1,0-0.2,0-0.2,0.1c-0.4,0-0.8,0-1.2,0c-0.1,0-0.2,0.1-0.3,0.2c-0.2,0-0.3,0-0.5,0c0,0,0,0,0,0c-0.2,0-0.4,0-0.6,0
					c-0.1,0-0.1,0-0.1,0.1l-0.2,0c-0.1,0-0.2,0-0.2,0.1c-0.1,0-0.2,0-0.3,0c-0.1,0-0.1,0-0.1,0.1c0,0-0.1,0-0.1,0
					c-0.3,0-0.7,0-1,0.1c-0.1,0-0.1,0.1-0.2,0.2c-0.3,0.1-0.7,0.1-1,0.2c-0.4,0-0.9,0.1-1.3,0.2c-0.1,0-0.1,0.1-0.2,0.1
					c-0.9,0.2-1.8,0.4-2.7,0.7c0,0,0,0-0.1,0c0,0-0.1,0-0.1,0c-0.2,0.1-0.5,0.2-0.7,0.3c0,0,0,0,0,0c-0.1,0-0.3,0.1-0.4,0.1
					c-0.1,0-0.1,0.1-0.2,0.1c-0.1,0-0.2,0-0.3,0.1c-0.6,0.1-1.2,0.2-1.7,0.5c0,0,0,0,0,0c0,0,0,0,0,0c0,0,0,0-0.1,0
					c-0.1,0.1-0.2,0.2-0.1,0.3c-1,0.4-2,0.8-3,1.3c-0.1,0-0.2,0-0.3,0.1c0,0-0.1,0.1-0.1,0.1c-0.6,0.3-1.1,0.6-1.7,0.9c0,0,0,0,0,0
					c-0.8,0.3-1.6,0.7-2.4,1c-0.8,0.3-1.7,0.6-2.5,0.8c-0.1-0.1-0.2-0.2-0.4-0.1c-0.4,0.2-0.7,0.3-1.1,0.4c-1.6,0.3-3.2,0.5-4.8,0.6
					c-0.9-0.1-1.9-0.1-2.8-0.3c-0.2,0-0.3,0.1-0.3,0.2c-0.1,0-0.1-0.1-0.2-0.1c-0.1,0-0.2,0-0.3,0.1c-0.7-0.2-1.5-0.4-2.2-0.4
					c-0.7,0-1.3,0-2,0c-0.5,0-1,0-1.5,0.1c-0.1,0-0.1,0-0.2,0c-0.1-0.1-0.1-0.2-0.3-0.2c-0.1,0-0.1,0-0.2,0c-0.1,0-0.2,0-0.4,0
					c-0.1,0-0.1-0.1-0.2,0c-0.4,0.1-0.7,0.1-1.1,0.2c-0.5,0-0.9,0.1-1.4,0.1c-0.3,0-0.6,0.1-0.9,0.2c-0.1,0-0.2,0-0.2,0.1
					c-0.2,0-0.3,0.1-0.5,0.1c-0.6,0.2-1.1,0.4-1.7,0.7c-0.2,0.1-0.5,0.2-0.7,0.3c0,0,0,0-0.1,0c-1,0.3-2,0.8-2.8,1.4
					c-0.4,0.3-0.7,0.6-1,0.9l0,0c0,0,0,0,0,0l0,0c0,0,0,0,0,0c-0.1,0.1-0.2,0.1-0.2,0.2c-0.1-0.1-0.2-0.1-0.3,0.1l-0.4,0.4
					c-0.1,0-0.2-0.1-0.3,0c-0.6,0.4-1.3,0.8-1.7,1.4c0,0-0.1,0.1-0.1,0.1c-0.1,0-0.1,0-0.2,0.1c-0.1,0.1-0.2,0.2-0.2,0.2
					c-0.1,0-0.1,0.1-0.2,0.1c-0.1,0-0.1,0-0.2,0c-0.6,0.1-1,0.6-1.2,1.1c-0.1,0-0.3,0.1-0.4,0.1c-0.1,0-0.1,0.1-0.1,0.2
					c-0.1,0.1-0.2,0.2-0.1,0.4l0.1,0.2c0,0,0,0,0,0c0,0.8,0,1.5,0,2.3c0,0.5,0,1.2,0.2,1.7c-0.2,0.2,0,0.5,0.3,0.5c0,0,0.1,0,0.1,0
					c0,0.1,0,0.2,0.1,0.2c0,0,0.1,0,0.1,0c0.2,0.6,0.4,1.2,0.5,1.8c0.1,0.4,0.1,0.7,0.1,1.1c-0.1,1-0.1,2.1,0.1,3.1
					c0.1,0.4,0.1,0.7,0.3,1.1c0,0.2,0.1,0.3,0.1,0.5c0,0.1,0.1,0.1,0.1,0.1c0,0.1,0.1,0.2,0.1,0.2c-0.1,0-0.2,0.1-0.2,0.3
					c0,0.4,0.2,0.7,0.4,1.1c0.2,0.4,0.4,0.8,0.5,1.1c0.3,0.8,0.6,1.6,0.8,2.4c0,0.1,0.1,0.2,0.2,0.2c0.1,0.5,0.3,1.1,0.6,1.5
					c0.2,0.3,0.4,0.6,0.6,0.8c0.1,0.1,0.3,0.3,0.4,0.4c0,0,0,0,0,0c-0.1,0.1-0.1,0.3,0.1,0.4c0.4,0.2,0.8,0.2,1.2,0.3
					c0.5,0.1,0.9,0.2,1.4,0.2c0.1,0,0.1,0,0.2,0c0,0.1,0.1,0.1,0.2,0.1c1,0.1,1.9,0,2.8-0.2c0.6-0.1,1.2-0.3,1.9-0.4
					c0,0.2,0.2,0.2,0.4,0.2c0.5-0.1,0.9-0.2,1.4-0.3c1-0.2,1.9-0.5,2.8-0.9c0.1,0,0.2,0,0.3,0c0.2-0.1,0.4-0.3,0.7-0.4
					c0,0,0.1,0,0.1,0c0,0,0,0,0.1,0l0,0c0,0,0,0,0,0c0.2-0.1,0.4-0.2,0.6-0.3c0,0,0,0,0.1,0c0.6-0.1,1.2-0.5,1.5-1.1
					c1-0.6,1.8-1.6,2.2-2.6c0.1-0.2,0.2-0.4,0.3-0.6c0.2-0.5,0.4-1,0.5-1.5c0,0,0-0.1,0.1-0.1c0,0,0,0,0,0c0.1-0.2,0.2-0.4,0.3-0.6
					c0.1-0.1,0.1-0.3,0.2-0.4c0.1-0.2,0.1-0.4-0.1-0.5c0,0-0.1,0-0.1-0.1c0-0.2,0.1-0.3,0.1-0.5c0-0.1,0-0.1,0-0.2
					c0.1-0.1,0.1-0.3,0.2-0.4c0.2-0.6,0.2-1.3,0.2-2c0,0,0,0,0,0c0-0.2,0.1-0.4,0.1-0.6c0.1,0,0.2-0.1,0.2-0.3c0-0.1,0-0.3,0-0.4
					c0.1,0,0.1-0.1,0.2-0.2c0.1-0.3,0.1-0.6,0.2-1c0.2-1.2,0.3-2.4,0.4-3.6l0,0c0,0,0.1-0.1,0.1-0.1c0.1-0.6,0.1-1.2,0-1.8
					c0,0,0-0.1,0-0.1c0,0,0,0,0,0c0.1-0.1,0.1-0.3,0.1-0.5c0-0.1,0-0.2-0.1-0.3c0,0,0,0,0-0.1c0-0.2,0.1-0.4,0.1-0.6
					c0,0,0-0.1,0-0.1c0.4-0.5,0.7-1.1,0.9-1.6c0.4-0.3,0.8-0.5,1.1-0.8c0.1-0.1,0.1-0.1,0.1-0.2c0,0,0.1,0,0.1,0
					c0.9-0.5,2-0.8,3-0.9c1-0.1,2.2,0,3.1,0.5c0.1,0.1,0.2,0.1,0.3,0c0.3,0.2,0.5,0.5,0.7,0.8c0.1,0.1,0.1,0.1,0.2,0.1
					c0.1,0.5,0.2,1,0.3,1.5c0,0.1,0,0.1,0.1,0.1c0,0,0,0.1,0,0.1c0,0,0,0.1,0.1,0.1c0,0,0,0,0.1,0c0,0.1,0,0.2,0,0.4
					c0,0,0,0.1,0,0.1c-0.1,0.1-0.2,0.2-0.1,0.3c0.1,0.4,0.2,0.9,0.4,1.3c-0.1,0-0.1,0.1-0.1,0.2c0.1,1.5,0.5,2.9,1,4.3
					c0.5,1.2,0.9,2.4,1.7,3.4c0,0,0,0,0,0c0.1,0.1,0.2,0.3,0.2,0.4c-0.1,0.1-0.1,0.1-0.1,0.2c0,0.2,0.1,0.3,0.3,0.3c0,0,0,0,0,0
					c0,0.1,0.1,0.1,0.1,0.2c0.1,0.1,0.2,0.3,0.3,0.4c0.2,0.3,0.4,0.5,0.6,0.8c0.1,0.1,0.2,0.2,0.3,0.3c0,0,0,0,0,0c0,0,0,0,0,0
					c0.3,0.3,0.7,0.7,1,1.1c0.1,0.1,0.1,0.1,0.2,0.1c0.8,0.7,1.7,1.4,2.8,1.7c0,0,0,0,0.1,0c0.6,0.1,1.1,0.1,1.7,0.1
					c0,0,0,0.1,0,0.1c0.1,0.2,0.4,0.2,0.6,0.2c0.2,0,0.5,0,0.7,0c0.1,0.1,0.2,0.2,0.3,0.1c0.2,0,0.4-0.1,0.6-0.1c0,0,0.1,0,0.2,0
					c0.2,0,0.4,0,0.6,0c0.1,0.1,0.1,0.2,0.3,0.2c0.1,0,0.2,0,0.3,0c0.1,0,0.2,0,0.3,0c0.4,0,0.8,0,1.1,0c0,0,0.1,0,0.1,0
					c0.4,0.1,0.9,0.1,1.3,0.1c0,0,0,0,0.1,0c0.7,0.1,1.4,0.1,2.1,0.1c0.5,0,0.9,0,1.4,0c0,0,0.1,0,0.1,0c1,0,1.9,0.1,2.9,0.1
					c0.9,0,1.8,0.1,2.6-0.2c0.1,0,0.1-0.1,0.1-0.1c0.1,0,0.1,0,0.2,0c0,0,0.1,0,0.2,0c0,0,0.1,0,0.1,0c0.6,0,1.2-0.1,1.9-0.2
					c0.4-0.1,0.8-0.2,1.2-0.3c0.3-0.1,0.7-0.2,1-0.3c0.2,0.2,0.5,0.3,0.8,0.2c0.4-0.1,0.7-0.3,1-0.5c0,0,0.1,0,0.1,0
					c1.7-0.3,3.1-1.4,4.2-2.8c0.1-0.1,0.1-0.3,0.1-0.4c0.3-0.4,0.5-0.8,0.7-1.2c0,0,0-0.1,0.1-0.1c0.2-0.2,0.3-0.5,0.4-0.7
					c0.3-0.3,0.5-0.7,0.3-1.1c0.1-0.2,0.1-0.3,0.2-0.5c0,0,0-0.1,0-0.1c0.1-0.3,0.2-0.6,0.3-0.9c0-0.1,0-0.2,0-0.3
					c0.1-0.2,0.2-0.5,0.2-0.7c0.3-1.2,0.4-2.4,0.6-3.6c0.1-0.2,0.2-0.4,0.3-0.6c0.3-2.5,0.4-5,0.4-7.6c0,0,0-0.1,0.1-0.1
					c0.2-0.4,0.3-0.7,0.4-1.1c0,0,0,0,0,0c0.1,0,0.1-0.1,0.2-0.1c0,0,0,0,0,0c0.4,0,0.9-0.3,1.2-0.5c0.4,0.2,0.8,0.4,1.3,0.6
					c0.2,0.1,0.3,0.1,0.5,0.1c0.8,0.5,1.5,0.9,2.4,1.2c0,0,0.1,0,0.1,0c0.9,0.5,1.8,0.9,2.7,1.3c0.9,0.4,1.9,0.9,2.8,1.3
					c0,0,0.1,0.1,0.1,0.1c1.1,0.5,2.2,1,3.3,1.5c0.6,0.3,1.2,0.6,1.8,0.9c0,0.1,0.1,0.2,0.2,0.2c2.5,0.9,4.8,2.1,7.2,3.3
					c0.1,0,0.2,0,0.2,0c0.1,0,0.1,0.1,0.2,0.1c0.2,0.1,0.4,0,0.5-0.3c0-0.1,0-0.2,0-0.2c0,0,0,0,0,0c0,0,0,0,0,0c0,0,0,0,0,0
					c0,0,0-0.1,0-0.1c0-0.1,0-0.2,0.1-0.2c0,0,0-0.1,0-0.1c0,0,0,0,0-0.1c0,0,0,0,0,0c0-0.1,0.1-0.2,0-0.3c0,0-0.1-0.1-0.1-0.1
					c0.1-0.2,0.1-0.4,0.1-0.6C421.3,294.2,421.4,293.4,421.1,292.7 M345,293.4c-0.1,0-0.2,0.1-0.2,0.3c-0.1,1.6-0.3,3.3-0.5,4.9
					c-0.1,0.5-0.2,0.9-0.3,1.4c0,0,0,0,0,0.1c0,0,0,0,0,0c0,0,0,0,0,0c0,0,0,0,0,0c0,0.2,0,0.5,0,0.7c-0.1,0.3-0.1,0.5-0.2,0.8
					c0,0.1,0,0.1,0,0.2c-0.1,0.5-0.2,0.9-0.3,1.4c0,0.1,0,0.3,0.1,0.3c0,0,0,0.1,0,0.1c0,0,0,0.1,0,0.1c0,0,0,0,0,0.1
					c-0.1,0.5-0.2,0.9-0.3,1.4c0,0.2,0,0.3,0.2,0.3c0,0.1-0.1,0.3-0.1,0.4c-0.2,0.7-0.6,1.3-0.7,2c0,0,0,0,0,0c0,0,0,0.1-0.1,0.1
					c-0.1,0-0.2,0.1-0.2,0.2c0,0.2-0.1,0.3-0.2,0.5c-0.5,0.7-1,1.3-1.5,2c-0.1,0.1-0.2,0.3-0.3,0.4c-0.2,0.2-0.4,0.4-0.6,0.5
					c-0.1,0.1-0.1,0.2-0.1,0.3c-0.3,0.2-0.6,0.4-0.8,0.6c0,0,0,0-0.1,0c-2.2,1-4.5,2-6.8,2.7c0,0,0,0,0,0c-1.6,0.1-3.2,0.3-4.8,0.4
					c-0.1,0-0.1,0-0.1,0c-0.3,0-0.6-0.1-0.9-0.2c-0.3-0.2-0.6-0.3-1-0.5c0-0.1,0-0.2-0.1-0.3c-0.3-0.4-0.6-0.9-0.9-1.4
					c0-0.1,0-0.1,0-0.2c-0.2-0.5-0.5-1-0.9-1.5c0,0,0,0,0,0c-0.2-0.3-0.4-0.7-0.4-1.1c0-0.1,0-0.2-0.1-0.3c-0.2-0.6-0.3-1.3-0.4-1.9
					c0-0.1-0.1-0.2-0.2-0.3c0-0.2-0.1-0.5-0.1-0.7c0-0.1,0-0.2-0.1-0.2c0-0.1,0-0.1,0-0.2l-0.8-4.6c0-0.1,0-0.1-0.1-0.1
					c0-0.2,0-0.4-0.1-0.6c0-0.3-0.1-0.5-0.2-0.8c0.2,0,0.4-0.1,0.3-0.4c-0.1-0.2-0.1-0.5-0.2-0.7c0.1,0,0.2-0.2,0.2-0.4
					c-0.1-0.4-0.1-0.7-0.2-1.1c0.1,0,0.3-0.1,0.3-0.3c-0.1-0.9,0.1-1.7,0.3-2.6c0.1,0,0.1-0.1,0.2-0.1c0.2-0.3,0.3-0.6,0.4-0.9
					c0,0,0,0,0.1-0.1c0.2-0.4,0.4-0.8,0.6-1.1l0.3-0.3c0.1,0,0.2,0,0.2,0c0.3-0.1,0.5-0.3,0.7-0.5c0.1,0,0.1-0.1,0.1-0.2
					c0,0,0-0.1,0-0.1c0.1-0.1,0.1-0.2,0.2-0.2c0.1,0,0.2,0,0.2-0.1c0.1-0.1,0.3-0.2,0.4-0.4c0.1,0,0.2,0.1,0.3,0
					c1-0.7,2-1.3,3.1-1.8c0.1,0,0.2,0,0.3-0.1c0.1,0,0.1-0.1,0.2-0.1c0.3-0.1,0.5-0.2,0.8-0.4c0,0,0,0,0,0c0,0,0.1,0,0.1,0
					c0.2-0.1,0.5-0.2,0.8-0.3c0.1,0.1,0.2,0.2,0.3,0.1c0.8-0.3,1.6-0.5,2.4-0.7c0.4-0.1,0.8-0.1,1.2-0.2c0.2,0,0.6-0.1,0.8-0.2
					c0.1,0,0.3,0,0.4-0.1c0.1,0,0.1-0.1,0.2-0.1l0.1,0c0.1,0,0.2,0,0.2-0.1c0.5-0.1,0.9-0.1,1.4-0.1c0,0,0.1,0,0.1,0
					c0.1,0,0.3,0,0.4,0c0.6,0,1.2,0,1.8,0c0.9,0,1.9,0.3,2.7,0.6c0.2,0.2,0.5,0.5,0.7,0.8c0.3,0.3,0.6,0.5,0.9,0.7
					c0.1,0.2,0.2,0.4,0.3,0.7c0.1,0.3,0.1,0.7,0.3,1c0,0,0,0,0,0c0,0.7,0.1,1.3,0.1,2C344.9,293.2,344.9,293.3,345,293.4
					C345,293.4,345,293.4,345,293.4 M357.4,298L357.4,298c0-0.1-0.1-0.2-0.2-0.2c-0.2-0.9-0.4-1.8-0.6-2.7c0.2,0.9,0.5,1.8,0.8,2.7
					c0,0,0,0.1,0.1,0.1c0,0,0,0,0,0C357.4,298,357.4,298,357.4,298 M361.4,306.6C361.4,306.5,361.4,306.5,361.4,306.6
					c0.1,0,0.2,0.1,0.3,0.2c0,0,0.1,0,0.1,0c0.1,0.2,0.2,0.4,0.3,0.6c0,0.1,0.1,0.1,0.2,0.1c0,0,0,0.1,0,0.1
					C362,307.3,361.7,306.9,361.4,306.6 M394,288.2c0,1.9,0,3.7-0.2,5.6c-0.1,0.1-0.2,0.3-0.2,0.5c0,0.2,0,0.5-0.1,0.7
					c0,0.1-0.1,0.2-0.1,0.3c-0.2,1.5-0.2,3-0.6,4.4c-0.3,1.2-0.8,2.3-1.3,3.3c-0.7,0.6-1.4,1.2-2,1.9c-0.4,0.5-0.9,0.9-1.4,1.3
					c0,0-0.1,0.1-0.1,0.1c0,0-0.1,0.1-0.1,0.1c-0.1,0.1-0.3,0.2-0.4,0.3c-0.3,0.2-0.6,0.3-0.8,0.5c-0.2,0.1-0.3,0.2-0.4,0.4
					c-0.1,0.1-0.2,0.1-0.3,0.2c-0.1,0-0.2,0.1-0.3,0.1c-0.2,0.1-0.5,0.2-0.7,0.2l-1.7,0.5c-0.1,0-0.3,0.1-0.4,0.1
					c-0.1-0.1-0.1-0.1-0.2-0.1c0,0-0.1,0-0.1,0c0,0,0,0,0,0c0,0,0,0,0,0c0,0-0.1,0-0.1,0c-0.1,0-0.2,0-0.3,0.1
					c-0.1,0-0.1,0.1-0.2,0.1c-0.2,0-0.3,0-0.4,0.1l-2.8,0.1c-0.1,0-0.1,0-0.2,0.1c-1.8,0-3.7-0.1-5.5-0.1c-0.1,0-0.1,0-0.2,0.1
					c-0.6,0-1.2,0-1.8-0.1c-0.3,0-0.6,0-1,0c-0.2,0-0.4,0-0.5,0.2c-0.7-0.1-1.3-0.1-2-0.2c-0.1-0.1-0.2-0.1-0.3-0.1
					c-0.4,0.1-0.8,0.1-1.1,0.1c0-0.1-0.1-0.2-0.2-0.2c-0.6-0.1-1.2-0.1-1.7-0.4c-0.4-0.2-0.7-0.4-1.1-0.5c0,0,0.1-0.1,0.1-0.2
					c-0.1-0.6-0.2-1.2-0.4-1.7c-0.7-4.1-1.6-8.2-3.8-11.7c-0.3-0.5-0.7-1-1-1.5c-0.1-0.2-0.2-0.3-0.2-0.5c-0.1-0.4-0.2-0.8-0.5-1.1
					c-0.2-0.3-0.6-0.5-0.9-0.6c0-0.2,0-0.3,0-0.5c0.1,0,0.2-0.1,0.2-0.3c0-0.2,0-0.4,0-0.7c0,0,0-0.1,0-0.1c0,0,0-0.1,0.1-0.1
					c0.1-0.3,0.2-0.7,0.3-1c0,0,0-0.1,0.1-0.1c0.1-0.1,0.1-0.2,0.2-0.3c0,0,0,0,0-0.1l0,0c0,0,0,0,0,0c0,0,0,0,0,0c0,0,0,0,0,0
					c0,0,0,0,0.1-0.1c0.1-0.1,0.1-0.1,0.1-0.2c0-0.1,0-0.1-0.1-0.2c0-0.1,0.1-0.1,0.1-0.2c0,0,0,0,0,0c0.3-0.5,0.6-1,1-1.5
					c0.2-0.2,0.4-0.4,0.7-0.6c0,0,0.1-0.1,0.1-0.2c0.2-0.1,0.4-0.3,0.6-0.4c0,0,0.1,0,0.1-0.1c0.6-0.4,1.2-0.7,1.8-1.1
					c0,0,0,0,0.1-0.1c0.6-0.3,1.3-0.5,1.9-0.7c0.5,0,1-0.1,1.4-0.3c0,0,0,0,0.1,0c0,0,0.1,0,0.2,0l0.1,0c0.1,0,0.1,0,0.1-0.1
					c0,0,0,0,0,0c0,0,0.1-0.1,0.1-0.1c0,0,0,0,0,0c0.5,0,0.9-0.1,1.3-0.2c0.1,0,0.1-0.1,0.2-0.2c1-0.1,2.1-0.3,3.1-0.6
					c0.4-0.1,0.9-0.3,1.4-0.4c0.4,0,0.8-0.1,1.2-0.2c0.2,0,0.5,0,0.7-0.1c0,0,0,0,0,0c0.1,0,0.2,0,0.3-0.1c0,0,0,0,0,0c0,0,0,0,0,0
					c0.2,0,0.5,0,0.7-0.1c0,0,0,0,0,0c0.8-0.1,1.6-0.1,2.4-0.1c1,0,2,0.1,2.9-0.2c0.1,0,0.1-0.1,0.2-0.1c0.2,0,0.5,0,0.7,0
					c0.3,0,0.6,0,0.9,0c0.3,0,0.6,0,0.8-0.1c0,0,0,0,0,0c0.7,0.2,1.5,0.1,2.2,0.1c1.1,0,2.1,0.2,3.2,0.3c0.1,0,0.2,0,0.2-0.1
					c0.2,0,0.4,0,0.6,0c0.4,0.1,0.8,0.2,1.3,0.3c0.6,0.3,1.1,0.6,1.7,0.8c0.3,0.1,0.5,0.2,0.6,0.5c0.1,0.2,0.3,0.4,0.5,0.6
					c0.1,0,0.1,0.1,0.2,0.1c0,0.1,0,0.2,0.1,0.3c0.1,0.5,0.3,0.9,0.5,1.3c0.1,0.1,0.2,0.3,0.2,0.4c-0.1,0.2-0.1,0.4,0,0.5
					c0.1,0.2,0.1,0.4,0.2,0.6c0,0.1,0.1,0.3,0.1,0.4c0.1,0.5,0.1,1.1,0.2,1.6c0,0.1,0,0.2,0,0.3c0,0.1,0,0.2,0.1,0.3
					c0,0.1,0,0.1,0,0.2C393.9,288,393.9,288.1,394,288.2C394,288.2,394,288.2,394,288.2"/>
				<path class="st10" d="M409.6,360.8c-0.3-0.5-1-1.1-6.4-1.2c-8.9-0.1-10.3,1.5-13.1,0c-3.2-1.6-4.2-5-6.6-4.6
					c-0.8,0.1-1.3,0.7-1.7,1.1c-3.3,3.3-0.5,8.3-3.1,10.9c-1.3,1.3-3.3,1.2-7.2,1.1c-4-0.1-5-1.2-8.7-0.9c-3,0.2-3.6,1.1-4.7,0.7
					c-1.8-0.7-3.3-4-2.4-15.3h-3.8c-0.3,0.9-0.8,2.2-1.2,3.9c-0.6,2.4-0.6,3.3-0.9,4.7c-0.9,3.6-2.6,3.7-3.6,6.7
					c-0.8,2.2-0.9,5.1,0,7.5c0,0,0,0,0,0v0.1c0,0,0,0.1,0,0.1c0,0,0,0.1,0.1,0.1c0,0,0,0,0,0c0.4,0.9,0.9,1.8,1.5,2.6
					c0.4,0.4,1.7,1.9,6.2,3.1c1.8,0.5,3.4,0.7,5.1,0.8c0,0,0.1,0,0.1,0c0.6,0.1,1.3,0.1,1.9,0.2c0.4,0.1,0.8,0.2,1.3,0.2
					c0.6,0,1.3,0.1,1.9,0.1c0.2,0,0.3,0.1,0.5,0.1c0.6,0.2,1.3,0.2,1.9,0.1c0,0,0,0,0,0c0.1,0.1,0.1,0.1,0.2,0.1
					c0.1,0,0.2,0,0.2-0.1c0,0,0,0,0-0.1c0,0,0,0,0,0c0.4,0,0.9,0,1.3,0c0.2,0,0.4,0,0.6-0.1c0.7,0.1,1.4,0.1,2.2,0.1
					c0.4,0,0.8-0.1,1.3-0.1c0.1,0,0.3,0,0.4,0c0.1,0,0.2,0,0.3,0c0.6,0.2,1.3,0.3,1.9,0c0.1-0.1,0.3-0.1,0.4-0.2c0,0,0,0,0,0
					c0.1,0,0.1,0,0.2,0c0,0,0.1,0,0.1,0c0,0,0,0,0.1,0c0,0,0.1,0,0.1-0.1c0,0,0.1,0,0.1-0.1c0.2,0,0.3,0,0.5,0c0.3,0,0.5,0,0.8,0
					c0,0,0,0,0,0c0.2,0.1,0.3,0.1,0.5,0c0.3-0.1,0.5-0.1,0.8-0.2c0.1,0,0.1-0.1,0.2-0.1c0,0,0,0,0,0c0,0,0,0,0,0c0,0,0.1,0,0.1,0
					c0.2,0,0.4,0,0.7-0.1c0.1,0,0.2,0,0.3,0c0.1,0,0.1,0.1,0.2,0.1c0.4,0,0.9,0,1.3-0.2c0,0.1,0.1,0.1,0.2,0.1
					c0.4,0.1,0.9,0.1,1.2-0.1c0.1-0.1,0.2-0.2,0.1-0.4c0,0,0.1,0,0.1,0c0,0.1,0,0.1,0.1,0.1c0,0,0,0,0.1,0c0,0,0.1,0,0.2,0h0.1
					c0,0,0.1,0,0.1,0c0,0,0.1,0,0.1-0.1c0,0,0.1-0.1,0.1-0.1c0,0,0-0.1,0-0.1c0,0,0,0,0,0c0.2,0,0.3-0.1,0.5-0.1c0,0,0,0,0,0
					c0,0,0.1,0,0.1,0c0.1,0,0.1,0,0.2,0c0,0,0.1,0,0.1-0.1c2-0.4,4-0.9,6.4-1.8c7.3-2.9,11.5-7.5,14.1-10.3
					C407.4,366.3,410.6,362.7,409.6,360.8"/>
				<path class="st10" d="M347.5,327.8c-3.3,2-5.5,3.4-6.7,5c-1.5,1.9-3.1,3.9-3.4,6.8c-0.2,2.4,0.5,4.9,1.2,5
					c0.6,0,0.6-1.9,2.4-4.8c1.1-1.8,2.1-2.7,3.5-4c1.5-1.4,2.2-1.8,3-1.9c1.2-0.2,1.8,0.3,2.1,0
					C350.2,333.5,350.2,332.8,347.5,327.8"/>
				<path class="st10" d="M353,329c-1.3,1.5-1.9,3.8-0.4,5.2c0.6,0.6,1.3,0.7,1.6,0.8c3.2,0.7,6.2,2.1,9.3,3.1
					c4.4,1.4,3.2,1.7,9.5,4c2.4,0.9,3.5,1.2,4.8,2.4c2.4,2.3,2.4,5,3.1,5c0.8-0.1,0.2-3.6-0.4-7.5c-0.4-2.5-0.7-2.6-2.5-4.6
					c-1.1-1.2-1.4-2.4-5.4-3.8c-9.2-3.1-9.8-4.1-11.8-4.4C356.5,328.6,354.4,327.3,353,329"/>
				<path class="st16" d="M385.7,381.2c-0.1-0.1-0.2-0.2-0.3-0.2c-0.4,0.1-0.7,0.2-1.1,0.3c-1,0.1-1.9,0.2-2.9,0.3
					c-0.7,0.1-1.5,0.1-2.2,0.4c-0.1,0-0.2,0-0.3,0c-0.1,0-0.1,0-0.1,0.1c-0.7,0-1.3,0.1-2,0.1c-0.1,0-0.2,0.1-0.2,0.1
					c-0.2,0-0.4,0-0.6,0.1c0,0-0.1,0-0.1,0c0,0-0.1,0-0.1,0c0,0-0.1,0-0.1,0c-1.3,0.1-2.6,0.2-3.8,0.2c-0.2,0-0.3,0.1-0.3,0.3
					c-0.2,0-0.4,0-0.6,0.1c-0.8,0.1-1.6,0.2-2.4,0.3c0.1-0.2,0-0.5-0.2-0.5c-0.8,0-1.5,0-2.3,0c-0.4,0-0.7,0.1-1.1,0.1
					c-0.3,0.1-0.6,0.1-0.8,0.4c-0.3,0.3,0.1,0.7,0.4,0.4c0.2-0.2,0.5-0.2,0.7-0.2c0.2,0,0.5-0.1,0.7-0.1c0,0.1,0.1,0.2,0.2,0.2
					c1.5,0.5,3.1,0.2,4.6,0c0.9-0.1,1.8-0.2,2.8-0.3c0,0.2,0.2,0.4,0.4,0.3c0.5-0.4,1.2-0.4,1.8-0.5c0.7-0.1,1.4-0.2,2.1-0.2
					c0,0,0,0,0,0c0,0,0.1,0,0.1,0c0.1,0,0.1,0,0.1-0.1c0.1,0,0.2,0,0.3,0c0,0,0,0,0,0c-0.7,0.3-1.4,0.6-2,0.9
					c-0.2,0.1-0.2,0.5,0.1,0.6c0.1,0,0.2,0,0.3,0.1c0.2,0,0.4-0.1,0.4-0.3c0.5-0.2,1-0.4,1.4-0.6c0.6-0.3,1.2-0.5,1.9-0.6
					c0.1,0,0.2-0.1,0.2-0.2l1.6-0.1c0.9-0.1,1.9-0.1,2.7-0.5c0.2,0,0.4,0,0.5,0C385.9,381.8,385.9,381.3,385.7,381.2"/>
				<path class="st14" d="M355,381.9C355,381.9,355,381.8,355,381.9c0-0.2-0.1-0.4-0.3-0.4c-0.1,0-0.1,0-0.2,0.1
					c-0.1-0.1-0.3-0.1-0.4-0.1c-0.4-0.1-0.7-0.2-1.1-0.3c-0.5-0.2-1.1-0.4-1.7-0.5c-0.3-0.2-0.6-0.3-0.9-0.4c-0.3,0-0.4,0.4-0.2,0.6
					c0.1,0.1,0.2,0.1,0.4,0.2c-0.1,0-0.1,0-0.2,0c-0.4,0-0.4,0.6,0,0.6c0.4,0,0.7,0,1.1-0.2c0.2,0.1,0.5,0.3,0.7,0.3
					c0.8,0.3,1.6,0.4,2.5,0.6C355,382.4,355.2,382.1,355,381.9"/>
			</g>
			<g class="st2">
				<defs>
					<rect id="SVGID_7_" x="150.7" y="126" width="478" height="369.3"/>
				</defs>
				<clipPath id="SVGID_8_">
					<use xlink:href="#SVGID_7_"  style="overflow:visible;"/>
				</clipPath>
			</g>
		</g>
	</g>
</g>
<g id="Layer_2">
	<polyline class="st25" points="536.9,454.1 569.3,471 568.9,551.4 	"/>
	<path class="st26" d="M455.5,340.4C455.5,340.4,455.5,340.4,455.5,340.4L455.5,340.4c-0.1,0.1-0.2,0.1-0.2,0.2c0,0,0,0,0,0
		c-1.4,0.9-1.8,3.3-2,4c-1.3,6.8-6.6,18-14,33.8c-4.8,10.3-11.4,16.2-20.2,24.2c-5.8,5.3-11.8,10.7-19.7,14.9l0,0
		c-1.8,0.7-3.8,1.5-6.4,2.2c-7.7,2.2-10.4,3.4-12.9,4.1c0,0,0,0,0,0h0c-3.7,1-7.3,0.9-25.7,1.2c-0.6,0-2.8-0.1-5.7-0.4
		c-1.7-0.2-3.6-0.4-5.5-0.6c0,0-0.1,0-0.1,0c-4.4-0.6-8.9-1.4-11.2-2.4c-0.4-0.2-0.7-0.3-1-0.5c-2.1-1.5-3.6-3.1-4.6-5
		c-1-1.8-1.6-3.9-2-6.5c-2.8-15.7-4.3-23.6-4.4-24.3c-3.4-13.9-7.6-14.9-9.5-27.8c-0.9-6.5,0.3-5.3-0.6-15.1
		c-1.4-16.6-4.7-18.4-3.9-27.5c0-0.2,0-0.5,0.1-0.7c0.1-0.8,0.2-1.4,0.3-2.1c0.3-2,0.8-3.6,1.3-5c0,0,0,0,0,0c0-0.1,0.1-0.2,0.1-0.3
		c0-0.1,0.1-0.2,0.1-0.3c0-0.1,0.1-0.2,0.1-0.3c1.3-3.4,2.6-5.4,1.9-10.3c-0.2-1.6-0.6-3-1.1-4.2v0c0-0.1-0.1-0.2-0.1-0.2
		c-1.6-4.1-4.2-6.1-4.8-12.2c-0.1-1.3-0.1-2.6,0.1-4.1v0c0.2-1.6,0.7-3.4,1.3-5.6c0.1-0.5,0.3-0.9,0.4-1.4c0.1-0.5,0.3-1,0.5-1.6
		c0.3-1,0.6-2.1,1-3.3c0.2-0.6,0.3-1.1,0.5-1.6c0.1-0.3,0.2-0.7,0.3-1c2.4-7.9,3.3-11.2,5.7-19.4c2.3-7.8,1.3-6.5,2.4-10.4
		c4.1-14.2,20.9-30.3,38.6-34.4c19-4.4,34,3.8,37.9,5.9c6.6,3.7,11.6,8.3,19.6,18.4c7.4,9.4,14.9,18.7,21.7,30.6
		c3.6,6.2,6.9,13.1,10,21c0.1,0.2,0.2,0.4,0.3,0.6c1.4,3.6,2.8,7.2,4.2,10.9C454,300.7,458.8,318.8,455.5,340.4z"/>
	<path class="st27" d="M331.4,273.9c0,1-0.1,2.4-0.7,4c-0.9,2.3-2.3,3.6-3.1,4.4c-2.9,3.1-1.4,5.6-4,14.9c-0.8,2.8-1.6,5.7-3.3,9.3
		c-1.7,3.6-2.7,4.5-3.6,7.6c-0.4,1.3-1.1,4.4-0.4,8.2c0.3,1.7,1.4,7.6,6,9.8c1.4,0.6,3.1,0.7,3.1,0.7c1.2,0.1,2.2,0,2.7,0
		c0.8-0.1,1.3-0.2,1.7-0.3c3.7-0.7,4.8-1.4,7.2-1.5c0.8,0,1.6-0.1,2.5,0.1c1.8,0.3,2.7,1.2,5.5,1.2c1,0,9,0.2,12.4-5.6
		c1.8-2.9,2.1-6.9,0.4-10.4c-2-4.2-5.9-5.5-6.7-5.8L331.4,273.9z"/>
	<path class="st28" d="M328.5,351.5c-3-0.4-3.6-2-5.8-1.8c-3.6,0.4-6.1,5.4-6.7,8.9c-0.3,1.4-0.8,4.6,1.1,6.4c0.7,0.7,1.6,1,1.6,1
		c0.1,0,1,0.3,2,0.1c1.5-0.3,2-2,2.9-2.9c2-2,5.2-1.5,8.7-1.3c8.6,0.5,7.6-1.4,14.2-0.7c6.5,0.7,7.4,2.5,14,2.9
		c1.5,0.1,9.1,0.6,9.6-1.1c0.4-1.5-4.6-3.8-14.7-8.4c-13.6-6.3-16.2-6.1-18.2-5.6C334,349.9,332.1,352,328.5,351.5z"/>
	<path class="st29" d="M362.3,364.2c-6.3-0.8-6.7-2.2-12.6-3c-4.6-0.6-8.5-0.2-11.9,0.1c-5.2,0.5-5.6,0.3-8.9,0.4
		c-2.8,0-5,0.4-5.9,2c-0.3,0.5-0.7,0.9-1.1,1.6c-0.8,1.2-1.6,0.4-2,1.1c-0.9,1.5,2,6.9,6,8.1c2.3,0.7,3.5-0.2,7.6-1
		c7.3-1.5,8.2,0.5,14-0.9c4.7-1.1,4.1-2.4,10.4-4.7c6.9-2.5,12-3.8,11.9-4.3C369.8,363.2,366.9,364.7,362.3,364.2z"/>
	<path class="st30" d="M325.4,374"/>
	<path class="st31" d="M376.7,271.7c-2.2-0.1-6.7,0.1-10.2,3.3c-0.4,0.4-3.8,3.5-3,5.6c0.3,0.7,1.1,1.3,3.9,1.9c4.9,1.2,8.7,1,8.7,1
		c5.4-0.2,6.2-0.9,12-1.5c6.9-0.7,9.6,0,9.9-1c0.5-1.6-5.4-4.8-9.6-6.5C383.7,272.7,379.6,272,376.7,271.7z"/>
	<path class="st30" d="M364.6,274.4c1.2-1.7,3.9-4.7,8.1-6.4c5.1-2,9.6-1,13.3-0.1c5.9,1.3,10.3,4,13.2,6.2"/>
	<path class="st30" d="M448.3,275.5c-0.1,1.4-0.2,2.9-0.2,4.3c-0.1,1.4-0.2,2.7-0.2,4.1c0,0,0,0,0,0c-12.7-5.9-25.5-11.8-38.2-17.8
		c-0.8,0.3-2.4,0.5-2.9,1.8c-1.3,3.5-0.1,8.7-2,17.1c-0.9,3.7-1.1,11.1-6.2,15.5c-2.3,2-4.5,2.6-8.9,3.8c-2.1,0.6-8.2,2-23.3,1.1
		c-7.5-0.5-11.1-1.1-12.9-1.7c-1-0.3-1.4-0.6-1.8-0.8c-6-3.6-8.6-10-9.6-12.2c-3.6-8.9-1.1-14.9-5.3-17.3c-1.8-1-4.1-1-5.4-0.8
		c0,0,0,0,0,0c0,0-0.1,0-0.1,0c-0.5,0.1-0.8,0.1-0.9,0.1c-2.8,0.6-4.5,2.3-5.1,2.9c-2.6,2.6-3,5.8-3.4,10.3v0c0,0.5-0.1,1-0.1,1.6
		c0,0,0,0,0,0.1c-0.2,1.7-0.3,3.5-0.6,5.6c-1.2,8.3-1.8,12.4-4.7,15.8c-2.8,3.3-6.4,4.8-10.7,5.8c-2.4,0.5-5,0.9-7.7,1.3
		c-6.2,0.9-8.4-0.1-9.8-1.1c-1.5-1.2-2.2-3-3.6-6.5c-1.5-4-2.6-6.8-2.7-10.7c-0.1-4.3,1.2-7-0.7-8.9c-0.7-0.7-1.4-1-2-1.1
		c-0.2-2.7-0.3-5.5-0.5-8.2c0.9-0.7,2.3-1.7,4-2.9c5.5-4,8.3-6,8.7-6.2c0.8-0.4,3.6-1.8,8.1-3c1.8-0.4,3.8-0.8,6.1-1.1
		c0.1,0,0.1,0,0.2,0c0.4,0,0.9-0.1,1.4-0.1c7.5-0.6,8.8,0.9,15.8,0.7c3.9-0.2,9.8-0.9,16.9-3.8c4.3-2.4,10.4-5.3,18-7.6
		c11.8-3.5,21.3-3.5,26.5-3.5c10.7,0,19.7,1.6,26.2,3.3c11,5.8,22.1,11.7,33.1,17.5c0.7,0.3,1.3,0.7,2,1
		C446.5,274.6,447.4,275,448.3,275.5z"/>
	<path class="st32" d="M308.5,291.5c-7.4-3.4-14.8-6.8-22.3-10.2"/>
	<path class="st32" d="M308.9,297.5c-8.1-2.7-16.2-5.3-24.4-8"/>
	<path class="st30" d="M291.9,312.9c-1.8-2.7-4.4-7.3-5.8-13.6c-1.2-5.3-2.9-12.9,1.3-19.6c3-4.7,7.4-6.6,10.7-8
		c1.7-0.7,14.6-6.1,20.7,0c1.7,1.7,2.4,3.7,2.7,5.1"/>
	<path class="st30" d="M342.3,274.9c2,3,4.2,7,6,12c1.5,4.3,2.4,8.1,2.9,11.3l0.3,2.5"/>
	<path class="st30" d="M341.1,269.5c0.3-0.9,1-3,2.7-5.1c2.8-3.5,6.6-5,14.2-6.7c7.9-1.8,13.7-3.1,22.9-3.1
		c10.8-0.1,16.8-0.1,19.8,4c1.6,2.2,1.8,5.1,2.2,9.6c0.1,1.6,0.3,4.5-0.4,10c-1.1,8.4-1.7,12.6-4,16c-3.5,5.1-8.8,7-11.8,8
		c-4.1,1.4-8.7,1.4-17.8,1.3c-9-0.1-13.6-0.2-15.8-1.3c-6.1-3.3-8.2-9.8-10.9-18C339.5,275.7,340.6,271.3,341.1,269.5z"/>
	<path class="st30" d="M319,269.5c-2.7-2.5-6.6-2.1-12.3-1.6c-2,0.2-7,0.8-12.8,3.7c-4.1,2-7.8,3.8-9.9,7.9
		c-1.2,2.3-1.5,4.7-1.7,5.8c-0.3,2.5-0.1,4.5,0.3,8.1c0.4,3,0.8,5.3,1.1,6.6c0.7,3.4,1.4,6.2,3,9.4c1.2,2.4,1.8,3.6,3.2,4.4
		c1.7,1,3.4,0.9,6.6,0.6c1.2-0.1,5-0.6,10.2-2.7c2.9-1.2,4.5-1.8,6.2-3.3c0.4-0.4,2-1.8,3.7-4.8c1.3-2.4,2.1-4.7,3.2-10.4
		c1.2-5.8,1.7-8.8,1.8-11.2C321.8,276.4,321.9,272.1,319,269.5z"/>
	<circle class="st33" cx="377.2" cy="277.3" r="5.4"/>
	<path class="st34" d="M433.5,251.3l-0.2,0.1c-6.8-11.8-14.2-21.2-21.7-30.6c-8-10-13-14.7-19.6-18.4c-3.9-2.2-18.9-10.3-37.9-5.9
		c-17.7,4-34.5,20.1-38.6,34.4c-1.1,3.9-0.1,2.6-2.4,10.4c-2.4,8.1-3.3,11.5-5.7,19.4l-0.1,0c1.4-4.8,2.2-8.5,3.6-14.4
		c2-9,1.7-9.2,3.6-18.1c2.2-10.1,3.3-15.2,5.3-19.3c4.3-8.4,10.1-13.2,11.8-14.5c4.7-3.7,9-5.3,12.2-6.5c5.5-2.1,17-6.5,29.3-3.6
		c8.5,2,13.6,6.7,22.5,15.1c5.7,5.3,13.2,13.4,25.2,31.4C423,233.9,427.6,240.9,433.5,251.3z"/>
	<path class="st35" d="M308.8,297.5c0,0.9-0.1,1.8-0.2,2.6c-0.2,1.4-0.5,4.1-1.1,6c0,0.1-0.1,0.2-0.1,0.3c0,0.1-0.1,0.2-0.1,0.3
		c0,0.1-0.1,0.2-0.1,0.3c0,0,0,0,0,0c-0.3,0.8-0.7,1.3-1.2,1.3c-2.1,0.1-4.3-11-4.7-13.3c0,0,0-0.1,0-0.1c-0.5-2.4-0.9-4.8-1.2-7.3
		c-0.6-4.9-0.8-10.2-0.7-16.4c0-0.6,0-1.2,0-1.8v0c0-0.6,0-1.2,0.1-1.8c1.8-0.4,3.8-0.8,6.1-1.1c-0.2,0.6-0.4,1.1-0.6,1.6
		c-0.2,0.6-0.4,1.1-0.5,1.5c-0.6,1.7-0.8,2.4-0.8,4.1c0,0.5,0,1,0,1.4v0c0.4,4.4,2.7,5.6,4.4,14.6c0.1,0.6,0.2,1.2,0.3,1.7v0
		c0,0.1,0,0.1,0,0.2v0C308.7,293.7,308.8,295.6,308.8,297.5z"/>
	<path class="st30" d="M448.3,275.5c-0.1,1.4-0.2,2.9-0.2,4.3c-1.2-2.8-1.9-4.5-2.5-5.8C446.5,274.6,447.4,275,448.3,275.5z"/>
	<path class="st30" d="M458.4,362.9c-0.3,2.5-0.6,5.1-0.8,7.7C457.6,368,457.9,365.4,458.4,362.9z"/>
	<path class="st30" d="M465.7,320.8c-0.6-1.6-1.3-3.3-2.1-5C464.6,316.9,465.8,318.9,465.7,320.8z"/>
	<path class="st30" d="M471.1,336.6l-2.1,1.6c-0.3,0.6-1,1.6-2.1,2.5c-0.4,0.3-2.3,1.8-4.7,1.6c-0.9-0.1-1.7-0.3-2.4-0.7"/>
	<path class="st30" d="M457,340.2c-0.4-0.1-0.8-0.1-1.2,0c-0.1,0-0.2,0.1-0.4,0.2c-0.1,0-0.2,0.1-0.2,0.2"/>
	<path class="st30" d="M455.2,340.6c-0.3,0.3-0.5,0.6-0.6,0.8"/>
	<path class="st30" d="M456.6,312.5c0.9-1.1,1.8-2.2,2.7-3.3l1.9-3"/>
	<path class="st34" d="M465.7,320.8c0,0.5-0.1,0.9-0.3,1.3c-0.4,0.9-1.1,1.4-1.8,1.9c-0.3,0.2-2.8,2.2-4,1.3c-0.9-0.7-0.8-3,0.3-4.4
		c0.9-1.3,2-1,2.7-2.2c0.9-1.7-0.3-3.6,0-3.7c0.1-0.1,0.6,0.3,1,0.8C464.6,316.9,465.8,318.9,465.7,320.8z"/>
	<path class="st36" d="M276.9,552.5c-23.4,0.1-46.8,0.2-70.3,0.3c0.3-19.7,0.6-39.4,0.9-59.1c20.8-14.6,41.7-29.2,62.5-43.8
		c4,11,8,25.2,10,42C282.8,516.9,280.1,538,276.9,552.5z"/>
	<path class="st37" d="M276.9,552.5c3.2-14.5,5.9-35.6,3.1-60.6c-2-16.8-6-31-10-42c-0.5-1.4-1.1-2.8-1.6-4.2
		c11.6-5.3,19.4-9.6,24.4-12.7c9.6-5.8,14.4-8.7,14.5-8.7c0.5-0.5,3.2-3.3,7.1-4.2c0.9-0.2,2.6-0.5,2.7-0.2c0.1,0.3-1.3,0.8-2,1.3
		c-0.3,0.3-0.6,0.6-0.8,1h0v0c-1.3,2.8,0.5,8.3,1.7,11.8c4.1,12.7,6.3,19.1,9.4,24.9c0.7,1.2,2.6,4.6,5.4,8.9
		c3.2,4.7,5.8,7.8,6.9,9.1c6.2,7.5,8.8,14.3,12.5,20.9c6.8,12.2,15.2,20.1,22.7,27.1c7,6.5,15.8,14.7,29.8,21.1
		c5.3,2.4,10.2,4.7,15.9,5.9C371.3,552.2,324.1,552.3,276.9,552.5z"/>
	<path class="st37" d="M418.5,552c6.8,0,13.5,0,20.3-0.1c-3.8,0.8-8,1.3-12.6,1.1C423.4,552.9,420.9,552.5,418.5,552z"/>
	<path class="st30" d="M248.5,581.7c0,0.1,0,0.2-0.1,0.3"/>
	<path class="st37" d="M568.8,551.4c-43.4,0.2-86.7,0.3-130.1,0.5c9.9-2.1,17.1-6.7,20.1-8.7c8.7-5.8,13.6-12.3,17.1-17.1
		c10.8-14.7,14.1-28.9,17.1-42.4c6.9-30.9,2.5-50.6-2-53.6c-2.8-1.8-5.4-3.9-8.2-5.5c-1.2-0.7-2.6-1.5-2.4-1.8
		c0.2-0.6,4.6,0.5,5.1,0.7c2.6,0.7,6.4,1.6,10.9,4.4c5.4,3.4,4.8,4.9,9.1,7.8c5.7,3.8,8,1.9,15.6,5.1c7,3,11.5,7.3,13.8,9.5
		c1.7,1.7,3.2,3.4,4.5,5.1v0c2.9,3.8,4.8,7.4,6.2,10.3c13.9,28.7,21.4,43.8,23.5,59.5v0c0.1,0.9,0.2,1.8,0.3,2.7
		C569.8,533.5,570.1,541.6,568.8,551.4z"/>
	<path class="st38" d="M457.7,379.4c0.7,8,0.2,17.6,1.4,25.7l-3.4,0.3c-8.3,10.2-15.6,17.9-20.9,23.1c-5.3,5.2-8.8,8.1-12.9,14.2
		c-3.8,5.7-4,8-9.1,17.1c-5.8,10.3-8.8,15.6-13.3,17.8c-6.2,3-12.5,1.5-19.8-0.2c-7.4-1.8-15.2-3.6-19.3-10
		c-3.8-5.8-1.2-10.2-2.9-20.2c-1.4-8.7-5-15.9-9.1-21.8l0.1-0.9c2.9,0.3,5.1,0.4,5.7,0.4c18.5-0.3,22-0.2,25.7-1.2h0c0,0,0,0,0,0
		c3.6-0.5,7-1.3,10.7-2.6c3.2-1.1,6-2.4,8.7-3.8l0,0c8-4.2,14-9.6,19.7-14.9c8.8-8,15.4-14,20.2-24.2c7.4-15.8,12.7-27,14-33.8
		c0.2-0.7,0.6-3,2-4c0,0,0,0,0,0c0.1,0,0.1-0.1,0.2-0.1v0c0.1,0,0.1-0.1,0.2-0.1c0.5-0.2,0.9-0.2,1.3-0.2c0,0,0,0,0,0
		c0.8,0.3,1.7,1,2.8,1.6c0,0,0,0,0,0c0.1,0.1,0.1,0.2,0.1,0.2c1.2,4.8-0.4,12.3-1.6,20.9c0,0,0,0,0,0c-0.5,2.6-0.8,5.2-0.8,7.7
		C457.5,373.5,457.4,376.5,457.7,379.4z"/>
	<path class="st30" d="M379.2,423.8c-6.5,0.9-13.6,0.9-23.7,0.8c-5.1-0.1-9.4-0.3-13.2-0.6"/>
	<path class="st30" d="M326,416.1l0.3-0.2c1.3,1.9,3.6,3.8,5.3,5.7"/>
	<path class="st30" d="M459.8,341.7c-0.4-0.5-1.5-1.4-2.8-1.6"/>
	<line class="st30" x1="314.3" y1="422.3" x2="314" y2="422.4"/>
	<path class="st36" d="M491.7,430.1c-2.8-1.8-5.4-3.9-8.2-5.5c-1.2-0.7-2.6-1.5-2.4-1.8l-0.7-0.2c-2.1-1.8-7.9-4.7-17.5-8.9
		c-0.2-0.1-1.9-1.3-2.5-3.1c-0.5-1.7-0.9-3.5-1.2-5.4l-3.4,0.3c-8.3,10.2-15.6,17.9-20.9,23.1c-5.3,5.2-8.8,8.1-12.9,14.2
		c-3.8,5.7-4,8-9.1,17.1c-5.8,10.3-8.8,15.6-13.3,17.8c-6.2,3-12.5,1.5-19.8-0.2c-7.4-1.8-15.2-3.6-19.3-10
		c-3.8-5.8-1.2-10.2-2.9-20.2c-1.4-8.7-5-15.9-9.1-21.8l0.1-0.9c-1.7-0.2-3.6-0.4-5.5-0.6c0,0-0.1,0-0.1,0
		c-3.9-0.3-7.2-0.7-10.3-1.1c-0.3-0.4-0.6-0.8-1-1.2c-0.4-0.2-0.7-0.3-1-0.5c-2.1-1.5-3.6-3.1-4.6-5l-6,3.3c-0.5,0.1-1,0.3-1.6,0.5
		c-1.1,0-2.2,0.3-3.1,1.1c-0.8,0.3-1.5,1.1-1.8,2c-0.3,0.8-0.3,1.7-0.4,2.5c0,1,0,2,0.1,3c0.3,1.9,1.2,3.8,1.9,5.6
		c0.3,0.9,0.7,1.7,1.1,2.6c0.7,2.9,1.6,5.8,2.8,8.5c0.4,0.9,0.9,1.9,1.4,2.8c0,0.1,0,0.2,0,0.3c0.3,0.7,0.5,1.4,0.8,2
		c-0.1,0.1-0.1,0.2-0.1,0.4c0.8,2.2,1.6,4.5,2.8,6.5c0,0.1,0,0.2,0,0.3c0.8,2.2,2.1,4.2,3.4,6.1c1.5,2.1,3,4.2,4.5,6.3
		c0.4,0.6,0.9,1.2,1.3,1.8c0,0.1,0,0.2,0.1,0.3l0.9,0.9c0,0,0,0.1,0,0.1c0.1,0.4,0.4,0.7,0.7,0.8c0.1,0.3,0.3,0.7,0.5,1
		c0.8,1.3,1.9,2.3,2.9,3.4c1.4,1.6,2.6,3.3,3.7,5.1c1.3,2.7,2.6,5.4,4,8.1c0.9,1.7,2,3.4,3.1,5c0.1,0.4,0.2,0.8,0.3,1.1
		c0.2,0.7,0.6,1.4,1.1,1.9c0.1,0.1,0.2,0.3,0.4,0.4c0.3,0.7,0.7,1.4,1,2.1c1.4,2.4,3,4.7,4.8,6.9c1.4,1.7,2.8,3.2,4.4,4.7
		c0,0,0,0.1,0,0.1c0.3,0.8,0.9,1.4,1.6,1.9c0.3,0.4,0.6,0.8,0.9,1.1c1.3,1.4,2.6,2.7,3.9,4c1.7,1.7,3.6,3.3,5.4,4.8
		c0.4,0.6,1,1,1.5,1.5c2.3,2,4.4,4.3,6.7,6.3c2.5,2.1,5.3,4,8.1,5.6c0.1,0.1,0.3,0.2,0.4,0.4c0.2,0.1,0.3,0.3,0.5,0.4c0,0,0,0,0,0
		c0,0,0.1,0.1,0.1,0.1c0.1,0.1,0.2,0.1,0.3,0.1c5,3.5,10.5,6.3,16.2,8.4c3.9,1.7,7.6,3.2,11.9,4.1c6.8,0,13.5,0,20.3-0.1
		c9.9-2.1,17.1-6.7,20.1-8.7c8.7-5.8,13.6-12.3,17.1-17.1c10.8-14.7,14.1-28.9,17.1-42.4C500.5,452.8,496.2,433.1,491.7,430.1z
		 M443.7,460.3c-1.8,8.5-5.8,14.1-6.9,15.6c-1.8,2.3-3.5,4.1-4.9,5.3c3.5-13.8,7.1-27.5,10.7-41.3
		C443.7,443.6,445.5,451.2,443.7,460.3z M467,455.2c-0.3,2.2-1.1,5.8-4.4,10c-2.3-13.5-4.6-27.1-6.9-40.7c1.5,3.2,3.2,6.9,5.1,11.1
		C466.3,447.9,467.5,451.1,467,455.2z"/>
	<path class="st38" d="M443.1,460.3c-1.8,8.5-5.8,14.1-6.9,15.6c-1.8,2.3-3.5,4.1-4.9,5.3c3.5-13.8,7.1-27.5,10.7-41.3
		C443.1,443.6,445,451.2,443.1,460.3z"/>
	<path class="st31" d="M319.9,289.4c-1.5,0.4-2.8,0.7-3.6,1c-0.8,0.2-1.1,0.4-1.5,0.2c-1.2-0.4-1.4-2.9-1.4-3.8L319.9,289.4z"/>
	<path class="st38" d="M466.4,455.2c-0.3,2.2-1.1,5.8-4.4,10c-2.3-13.5-4.6-27.1-6.9-40.7c1.5,3.2,3.2,6.9,5.1,11.1
		C465.7,447.9,466.9,451.1,466.4,455.2z"/>
	<path class="st30" d="M480.6,424.8c-7.8-2.1-10.6-1-11.8,0.4c-2,2.4,0.3,6.5-1.3,14.7c-0.4,1.9-0.8,3.3-1.1,4.2"/>
	<path class="st30" d="M323.8,328.3"/>
	<path class="st39" d="M320.1,329.9c-1.9-1.7-2.9-3.8-2.2-4.5c0.7-0.8,2.1,1,4,2.8c1.9,1.7,3.5,2.8,2.9,3.5S322,331.7,320.1,329.9z"
		/>
	<path class="st39" d="M340.7,322.2c-4.5,0.6-8.6,3.5-8.2,4.7c0.2,0.7,1.8,0.8,3.6,0.9c2.2,0.2,2.6-0.3,4.3,0c1.9,0.3,1.9,1,3.3,1.1
		c2.1,0.2,4.7-1,4.9-2.7c0.2-1.6-2.1-3-2.4-3.2C344.1,321.7,342,322,340.7,322.2z"/>
	<circle class="st40" cx="377" cy="276.8" r="3.6"/>
	<circle class="st33" cx="317.8" cy="285.5" r="4.1"/>
	<circle cx="318.8" cy="285.2" r="2.3"/>
	<path class="st41" d="M309,282.3c0.2-0.7,1.2-3.5,4.1-5.1c3.7-2.1,7.4-0.6,7.9-0.4"/>
	<path class="st42" d="M451.8,295.6c-1.4-0.5-3,0.1-4.3,0.9c-21.5,4.4-29.5,12.5-32.7,19.4c-4.1,8.8,0.7,13.2-3.6,25.5
		c-4.5,12.8-11.9,14.2-19.9,28.4c-5,9-8.3,17.7-8.3,24.9c0,25.6-7,27.6-5.3,29c3.3,2.7,13-1.8,22.2-6.8c2.2-1.2,10.6-4.8,22.1-15.4
		c3.8-3.5,8.6-7.7,12.7-12.7c10.2-12.7,14.7-25.5,17.9-35.4c4.9-14.7,4.4-25.3,4.3-34.4C456.9,310.6,456.5,297.3,451.8,295.6z"/>
	<path class="st26" d="M289.5,333c0-0.1-0.1-0.1-0.1-0.1c0,0-0.1-0.1-0.2-0.1c0,0-0.1,0-0.1,0c-0.1,0-0.2,0-0.3,0.1
		c-0.1,0.1-0.2,0.2-0.2,0.3l-0.1,0.5c0,0.1,0,0.1,0,0.2c0,0.1,0,0.1,0.1,0.2c0,0.1,0.1,0.1,0.1,0.1c0,0,0.1,0.1,0.2,0.1
		c0,0,0.1,0,0.1,0c0.1,0,0.2,0,0.3-0.1c0.1-0.1,0.2-0.2,0.2-0.3c0-0.2,0.1-0.3,0.1-0.5c0-0.1,0-0.1,0-0.2
		C289.6,333.1,289.5,333,289.5,333z"/>
	<path class="st40" d="M308.9,293c-0.2-0.6-0.3-1.3-0.6-1.8c-0.4-0.6-1.2-0.8-1.8-1c-0.5-0.2-0.9-0.4-1.4-0.6
		c-0.6-0.5-1.4-0.7-2.1-1c-0.1,0-0.2-0.1-0.4-0.1c-0.2-0.1-0.4-0.2-0.6-0.3c-1-0.4-2.1-0.9-3.2-1.1c-0.1,0-0.2-0.1-0.2-0.1
		c0,0-0.1-0.1-0.1-0.1c-0.1,0-0.2,0-0.3,0c-0.3-0.4-0.8-0.8-1.3-1c-1.4-0.7-2.8-1.1-4.2-1.7c-0.7-0.3-1.3-0.7-1.9-1
		c-0.3-0.1-0.8-0.3-1.2-0.2c-0.3-0.2-0.6-0.3-0.8-0.4c-0.3-0.1-0.7-0.3-0.9-0.5c-0.1-0.1-0.2-0.1-0.4-0.1c-0.1-0.3-0.5-0.4-0.7-0.2
		c-1,0.7-1.2,2.1-1.5,3.2c-0.3,1.4-0.6,2.8-0.4,4.2c0,0.3,0.2,0.5,0.5,0.5c0.1,0.1,0.3,0.2,0.5,0.2c0.1,0,0.2,0,0.2,0
		c0,0.1,0.1,0.2,0.3,0.3c0.7,0.1,1.3,0.3,2,0.4c0,0.2,0.1,0.3,0.4,0.4c0.7,0.1,1.5,0.2,2.2,0.4c0,0.2,0.1,0.3,0.3,0.3
		c1,0.3,2.1,0.6,3.1,0.8c0.3,0.2,0.6,0.3,1,0.3c0.1,0,0.2,0,0.4,0.1c1.6,0.6,3.3,1.3,5,1.9c0,0,0.1,0.1,0.1,0.1
		c0.3,0.3,0.7,0.5,1.2,0.6c0.6,0.2,1.3,0.4,1.9,0.6c0.7,0.2,1.3,0.3,2,0.5c0.3,0.1,0.7,0.2,1,0.2c0.1,0,0.2,0,0.3,0.1
		c0.6,0.2,1.1,0.3,1.7,0.5c0.1,0.1,0.2,0.2,0.4,0.2c0.1,0,0.3-0.1,0.3-0.2c0.2-0.1,0.2-0.3,0.2-0.5c0-0.1,0-0.3,0-0.4
		C309.9,295.2,309.4,294.1,308.9,293z"/>
	<path class="st43" d="M323.4,265.7c-2.4-2-4.7-4-7.1-6"/>
	<path class="st35" d="M324.3,266.3c0.6-1.3-3-5.6-6.4-6.5c-2.7-0.8-5,0.2-6.4,0.7c-3.4,1.4-6.6,4.3-6.1,5.3
		c0.4,0.8,2.6-0.2,7.6-0.4C319.8,265,323.7,267.4,324.3,266.3z"/>
	<path class="st35" d="M391.2,252.9c-7.5-0.6-12.6-0.4-14.2-0.3c-3,0.2-7.2,0.4-12.4,1.5c-8.9,1.8-13.5,4.6-13.9,3.9
		c-0.4-0.8,3.4-4.4,8.4-6.5c4-1.6,5.1-0.7,12.1-2.1c6.9-1.3,7.4-2.4,13.3-3.1c3-0.3,5.7-0.7,9-0.1c8.5,1.3,15.6,7.2,15,8.7
		C408.1,256,403.5,253.9,391.2,252.9z"/>
	<path class="st34" d="M189.7,342.5c-0.6,0-0.6,1,0,1C190.3,343.5,190.3,342.5,189.7,342.5z"/>
	<path class="st44" d="M460.7,315.7c0-0.1,0-0.2,0.1-0.3c0.1-0.4-0.2-0.6-0.6-0.6c-0.2-0.3-0.5-0.6-0.8-0.5
		c-0.5,0.1-0.7,0.8-0.2,1.1c0.1,0.1,0.2,0.1,0.3,0.1c0.1,0.1,0.1,0.2,0.2,0.3c-0.3,1-0.4,2.1-0.3,3.1c0,0.5,0.6,0.7,0.9,0.3
		C461,318.2,461.1,316.8,460.7,315.7z"/>
	<path class="st44" d="M466.8,334.5c-0.1-0.4-0.3-0.8-0.4-1.1c0,0,0,0,0-0.1c-0.2-0.6-0.4-1.2-0.7-1.7c-0.2-0.4-0.9-0.2-0.9,0.2
		c-0.1,0-0.2-0.1-0.4-0.1c0,0,0-0.1-0.1-0.1c-0.4-0.3-0.8-0.4-1.3-0.3c-0.1,0-0.2,0.1-0.3,0.2c-0.1,0-0.2,0-0.3,0
		c0.1-0.1,0.2-0.2,0.3-0.3c0.2,0,0.4,0,0.6-0.1c0.5-0.1,0.9-0.2,1.3-0.5c0.3,0,0.5,0.1,0.8,0.3c0.4,0.2,0.9-0.2,0.7-0.6
		c-0.7-2.2-1-4.5-0.9-6.8c0-0.6-1-0.6-1,0c0,0.1,0,0.3,0,0.4c-0.1,0-0.2,0-0.3,0c-0.9,0.5-1.8,1-2.5,1.8c-0.1,0.1-0.2,0.2-0.2,0.2
		c-0.6,0-1.1,0.4-1.1,1.1c0,0.1,0,0.2,0.1,0.2c-0.1,0.1-0.1,0.3-0.2,0.4c0-0.5,0-1,0-1.4c0-0.4-0.6-0.7-0.9-0.4
		c-0.3,0.4-0.6,0.8-1,1.2c-0.2-0.1-0.5,0-0.6,0.3c-0.1,0.3-0.2,0.5-0.3,0.8c0,0.1,0,0.3,0.1,0.4c-0.1,0.7-0.2,1.4-0.3,2
		c-0.1,0.4,0.2,0.7,0.6,0.6c0.5-0.2,0.8-0.5,0.9-1.1c0-0.3-0.1-0.4-0.3-0.5l0.2-1.4c0.2-0.2,0.4-0.5,0.6-0.7
		c0.1,0.8,0.2,1.6,0.4,2.4c0.1,0.2,0.2,0.6,0.3,0.9c0,0.2-0.1,0.4,0,0.6c0,0.8,0.3,1.5,0.9,2c0.7,0.6,1.8,0.8,2.7,0.4
		c0.2-0.1,0.4-0.3,0.3-0.6c-0.1-0.2-0.4-0.5-0.6-0.3c-0.3,0.1-0.6,0.2-1,0.1c0.3,0,0.7-0.1,1-0.4c0.1,0,0.2,0,0.3,0
		c0.1,0.1,0.2,0.1,0.3,0.1c0.1,0.2,0.2,0.3,0.4,0.5c0.2,0.7,1.1,1,1.7,0.8c0.1,0.2,0.2,0.4,0.3,0.6C466,335.4,467,335.1,466.8,334.5
		z M464.3,327.3C464.4,327.3,464.4,327.2,464.3,327.3c0.2,0.5,0.3,1.1,0.4,1.7c-0.1-0.1-0.2-0.1-0.3-0.1c0-0.1,0-0.2,0-0.3
		c0-0.2-0.2-0.5-0.5-0.5c-0.3,0-0.6,0.1-0.9,0.1C463.5,327.9,464,327.7,464.3,327.3z M461.5,327.4c0.9-0.2,1.8-0.7,2.5-1.3
		c-0.2,0.4-0.6,0.7-0.9,0.9c-0.5,0.3-0.9,0.6-1.3,1c-0.1,0-0.2,0-0.3,0c0,0,0,0,0,0c0-0.1-0.1-0.2,0-0.3
		C461.4,327.6,461.5,327.5,461.5,327.4z"/>
	<path class="st45" d="M458.6,329c0-0.1,0.1-0.3,0.1-0.4c0-0.2,0-0.4-0.2-0.5c0-0.3-0.1-0.6-0.1-0.9c-0.1-0.6-0.9-0.4-1,0.1
		c-0.2,1.6-0.3,3.1-0.5,4.7c0,0.3,0.1,0.4,0.3,0.5c-0.2,1.7-0.5,3.3-0.7,5c0,0.3,0.1,0.5,0.3,0.6c0.2,0.1,0.6-0.1,0.6-0.3l0.4-3
		c0,0.6-0.1,1.2-0.1,1.7c-0.1,0.6,0.9,0.6,1,0C459,333.9,459,331.5,458.6,329z"/>
	<path class="st34" d="M458.9,306.7c-0.2-0.8-0.5-1.6-0.7-2.3c0.1-0.2,0.2-0.4,0-0.5c-0.1-0.2-0.2-0.4-0.4-0.5
		c-0.2-0.6-0.4-1.3-0.6-1.9c-0.1-0.4-0.5-0.4-0.7-0.3c-0.4-0.8-0.8-1.6-1.1-2.4c0-0.1-0.1-0.1-0.1-0.2c-0.4-0.9-0.8-1.7-1.3-2.5
		c0-0.1-0.1-0.2-0.1-0.2c0-0.1,0.1-0.2,0-0.3c-0.6-1.7-1.2-3.5-1.8-5.2c0.1,0,0.1,0,0.2-0.1c0.2-0.1,0.3-0.5,0.2-0.7
		c-0.4-0.5-0.7-1-1.1-1.5c0,0,0-0.1,0-0.1c-0.1-0.2-0.2-0.3-0.3-0.3c-0.3-0.4-0.6-0.8-0.9-1.2c-0.1-0.2-0.3-0.2-0.5-0.1
		c-0.4-0.1-0.8,0.5-0.4,0.8c0.1,0.1,0.1,0.2,0.2,0.3c0,0.1,0.1,0.2,0.1,0.3c0.2,0.6,0,1.4,0.1,2c0.1,0.8,0.3,1.6,0.7,2.3
		c0.6,1.2,1.4,2.3,2.1,3.4c0.5,2.2,1.3,4.4,2.4,6.4c0.1,0.3,0.4,0.3,0.6,0.2c0,0.1,0.1,0.2,0.1,0.4c0.4,1.9,0.5,3.9,1.4,5.8
		c0.3,0.6,1.1,0.1,0.9-0.5c-0.7-1.3-0.9-2.8-1.1-4.3c0.1,0.2,0.2,0.3,0.3,0.5c0.3,1.1,0.7,2.2,1,3.3
		C458.1,307.6,459.1,307.3,458.9,306.7z M451.1,291.2c-0.4-0.9-0.5-1.7-0.5-2.6c0.5,1.5,1,2.9,1.5,4.4
		C451.7,292.4,451.3,291.8,451.1,291.2z"/>
	<path class="st34" d="M465,346.5c0.1-0.2,0.1-0.4,0-0.5c-0.1-0.2-0.4-0.3-0.6-0.3c-0.2,0-0.4,0-0.5,0.1c-0.6,0.5-1,1.1-1.4,1.7
		c0,0-0.1,0-0.1,0c-0.9,0.5-1.4,1.4-1.4,2.3c0,0.3,0.2,0.5,0.5,0.5c0.3,0,0.5-0.2,0.5-0.5c0-0.1,0-0.1,0-0.2
		c0.1,0.1,0.1,0.1,0.2,0.2c0.2,0.1,0.6-0.1,0.6-0.3c0-0.1,0-0.1,0-0.2c0.1,0,0.1,0.1,0.2,0.1c0.2,0.1,0.3,0,0.5-0.1
		c0.5-0.4,0.9-1,1.1-1.7c0.1-0.1,0.2-0.2,0.3-0.3C465.1,347.2,465.2,346.8,465,346.5z"/>
	<g>
		<path class="st45" d="M463.1,326.7C463.1,326.7,463.1,326.7,463.1,326.7L463.1,326.7z"/>
		<path class="st45" d="M469.7,334.8c-0.2-1.4-0.4-2.8-0.8-4.2c-0.4-1.4-0.8-2.8-1.4-4.2c0.1-0.5,0-1-0.2-1.5c-0.5-1-0.9-2-1.4-3
			c-0.1-0.3-0.5-0.3-0.7-0.2c-0.1,0-0.3-0.1-0.4,0c-0.2,0.1-0.3,0.3-0.3,0.5c0,0,0,0.1,0,0.1c-0.1,0.1-0.1,0.2,0,0.4
			c0.1,0.2,0.1,0.4,0.2,0.6c0.1,0.8,0.3,1.6,0.5,2.4c-0.1,0.1-0.2,0.2-0.2,0.4c0,0.1,0,0.1,0,0.2c0,0-0.1,0-0.1,0.1
			c-0.3,0.2-0.4,0.4-0.6,0.7c0,0,0,0-0.1,0c-0.1,0-0.1,0.1-0.2,0.1c0.1-0.1,0.1-0.2,0.2-0.4c0-0.3-0.1-0.6-0.3-0.6
			c-0.2-0.1-0.6,0.1-0.6,0.3c0,0,0,0.1,0,0.1c0,0,0,0,0,0c0,0,0,0,0,0c0,0,0,0,0,0c0,0,0,0,0,0c0,0-0.1,0-0.1,0.1c0,0,0,0-0.1,0
			c0,0,0,0,0,0c0,0,0,0-0.1,0c-0.3,0.1-0.5,0.1-0.8,0.2c-0.7,0.2-1.6,0.9-1.1,1.7c0.1,0.2,0.3,0.3,0.6,0.2c0.3-0.1,0.6-0.1,0.8-0.2
			c0.1,0,0.3-0.2,0.3-0.3c0,0.1,0.1,0.2,0.2,0.3c0,0.1,0,0.1,0.1,0.2c-0.1-0.1-0.2-0.1-0.4-0.1c-0.3,0-0.5,0.3-0.5,0.5
			c-0.1-0.1-0.2-0.2-0.4-0.2c-0.4,0-0.5,0.4-0.5,0.6c-0.1,0.3,0,0.6,0.4,0.6c0,0,0,0,0,0c-0.1,0-0.2,0.1-0.2,0.1
			c-0.1-0.1-0.2-0.2-0.2-0.3c0,0-0.1-0.1-0.1-0.1c0,0,0,0,0,0c0.1-0.3-0.1-0.7-0.5-0.7c-0.4,0-0.5,0.4-0.5,0.7
			c-0.1,0.2,0,0.5,0.2,0.6c0,0.1,0.1,0.2,0.1,0.3c0.1,0.1,0.1,0.2,0.2,0.3c-0.1,0-0.1,0.1-0.2,0.2c0-0.1,0-0.2-0.1-0.3
			c-0.1-0.1-0.2-0.1-0.3-0.1c0,0,0,0,0-0.1c0,0,0-0.1,0-0.1c0-0.1,0-0.2-0.1-0.3c-0.1-0.1-0.2-0.3-0.2-0.4c0-0.1-0.1-0.1-0.1-0.1
			c0,0-0.1-0.1-0.2-0.1c0,0-0.1,0-0.1,0c0,0,0-0.1,0-0.1c0-0.3-0.1-0.4-0.3-0.4c-0.1-0.6-0.3-1.2-0.6-1.8c-0.3-0.5-0.9-0.2-0.9,0.3
			c-0.1,1.3-0.3,2.5-0.4,3.8c-0.2,0-0.4,0.2-0.4,0.5c0.1,2.4-0.4,4.7-1.2,6.9c-0.1,0.3,0.1,0.5,0.3,0.6c-0.2,0.4,0.3,0.9,0.7,0.6
			c0.1,0,0.2-0.1,0.2-0.1c0.8,0,1.5,0.4,2.2,0.8c0.5,0.5,1,0.9,1.6,1.2c1.1,0.5,2.2,0.5,3.4,0.1c0.6-0.1,1.1-0.3,1.5-0.6
			c0.6-0.3,1.1-0.7,1.4-1.3c0.1-0.1,0.3-0.2,0.4-0.3c0.2-0.2,0.2-0.4,0.1-0.5c0.1-0.1,0.3-0.2,0.4-0.3c0.3-0.2,0.3-0.6,0.1-0.8
			c0.1-0.2,0.2-0.4,0.2-0.7c0,0,0,0,0.1,0c0.1,0.1,0.3,0.2,0.4,0.1C469.9,337.1,469.8,335.8,469.7,334.8z M464.2,329.9
			c0,0,0,0.1-0.1,0.1c0,0,0,0,0,0c-0.1-0.2-0.2-0.3-0.5-0.3c-0.3,0-0.4,0.2-0.5,0.4c-0.3,0.1-0.7,0.2-1,0.2c0.1-0.1,0.2-0.3,0.1-0.5
			c0-0.1,0-0.1,0-0.2c0.1,0.1,0.2,0.2,0.4,0.2c0.3,0,0.5-0.3,0.5-0.6c0,0,0,0.1,0.1,0.1c0.1,0.1,0.2,0.2,0.3,0.2
			c0.1,0,0.3,0,0.4-0.1c0.1-0.1,0.1-0.1,0.2-0.2c0,0,0,0,0,0.1c0,0,0,0.1,0,0.1c0,0.1,0,0.1,0,0.2
			C464.3,329.7,464.2,329.8,464.2,329.9z"/>
	</g>
	<path class="st46" d="M469.9,337.6c0-0.1-0.1-0.2-0.1-0.2c0-0.1,0-0.1,0.1-0.2c0-0.1,0-0.2,0-0.3c0-0.1,0-0.2,0-0.3
		c0-0.1-0.1-0.2-0.2-0.3c-0.1-0.1-0.3-0.1-0.4-0.1c-0.1,0-0.2,0.1-0.3,0.2c0,0,0,0.1-0.1,0.1c0,0.1,0,0.2,0,0.3c0,0,0-0.1,0-0.1
		c0,0,0,0.1,0,0.1c0,0,0,0,0,0c-0.3-0.1-0.6,0.1-0.6,0.5c0,0,0,0.1,0,0.1c0,0,0,0.1,0,0.1c0,0.1,0,0.2,0,0.3
		c-0.1,0.1-0.2,0.2-0.3,0.3c-0.2,0.5-0.3,1.1-0.5,1.6c0,0-0.1,0.1-0.1,0.1c-0.1,0.2-0.3,0.5-0.4,0.8c-0.1,0-0.2,0-0.4,0.2
		c-1.1,1.3-2.8,1.9-4.4,1.6c0,0,0,0-0.1,0c-0.1,0-0.1,0-0.1,0c-0.4-0.1-0.7-0.2-1.1-0.5c-0.4-0.2-0.8,0.2-0.7,0.6
		c0.5,2.6,0.5,5.2-0.1,7.8c0,0.2,0,0.4,0.2,0.5c-0.3,1.9-0.7,3.7-1.1,5.6c-0.1,0.4-0.2,0.8-0.3,1.1c0,0.1,0,0.1,0,0.2
		c0,0.2-0.1,0.4-0.2,0.7c0,0,0,0.1-0.1,0.1c-0.1,0.1-0.1,0.2,0,0.3c-0.1,0.5-0.2,0.9-0.3,1.4c-0.2,0.6,0.8,0.9,1,0.3
		c0.2-0.6,0.3-1.2,0.4-1.7c0.7-1.3,1.4-2.6,2-3.9c0.2,0,0.3-0.1,0.4-0.3c0.7-1.5,1.3-3,2.3-4.4c1-1.4,2.2-2.6,3-4
		c0.4-0.7,0.7-1.3,1-2.1c0.3-0.5,0.4-1,0.6-1.5C469.8,341.2,470.2,339.4,469.9,337.6z"/>
	<path class="st46" d="M460.1,306c-0.7-0.9-1.4-1.9-2-2.9c-0.3-1.3-0.9-2.6-1.6-3.9c-0.2-0.4-0.5-0.7-0.7-1.1
		c-0.5-1.1-0.9-2.2-1.4-3.3c-0.2-0.6-0.3-1.1-0.5-1.7c-0.1-0.2-0.2-0.3-0.4-0.3c-0.8-1.9-1.6-3.7-2.4-5.6c0.2-0.1,0.3-0.3,0.3-0.6
		c-0.1-0.4-0.3-0.6-0.6-0.8c-0.3-2-1.1-3.9-2.3-5.4c-0.2-0.2-0.5-0.2-0.7,0c-0.2,0.2-0.2,0.5,0,0.7c0,0,0,0.1,0.1,0.1c0,0,0,0,0,0
		c-0.3,0.1-0.4,0.4-0.3,0.6l0.2,0.9c0,0,0,0,0,0.1c-0.1,0.4,0.1,0.9,0.2,1.3c0.1,0.4,0.3,0.7,0.4,1.1c-0.1,0.1-0.2,0.3-0.2,0.5
		c1.3,4.2,2.6,8.4,4.6,12.3c0.5,1,1.1,2,1.5,3c0.5,1,0.8,2.1,1,3.1c0.5,1.9,0.9,3.7,1.3,5.6c0,0,0,0,0,0c-0.1,0.1-0.2,0.2-0.2,0.4
		l0.1,1.1c0.1,0.6,0.9,0.6,1,0c0.2-0.1,0.4-0.3,0.3-0.6c0-0.2-0.1-0.3-0.1-0.5c0.1,0,0.3-0.1,0.3-0.2c0.2-0.2,0.3-0.5,0.5-0.7
		c0.1,0,0.2,0.1,0.3,0c0.3-0.1,0.4-0.3,0.3-0.6c0-0.1-0.1-0.2-0.1-0.3c0.2-0.3,0.4-0.6,0.6-0.9c0.1-0.2,0.1-0.4,0-0.5
		c0-0.1-0.1-0.2-0.1-0.2c0.1,0,0.1,0,0.2-0.1C460.1,306.6,460.3,306.2,460.1,306z"/>
	<path class="st47" d="M463.8,315.6c0.1-0.9-0.2-1.8-0.8-2.5c-0.1-0.4-0.1-0.9,0-1.3c0-0.3-0.2-0.5-0.5-0.5c-0.2,0-0.3,0.1-0.4,0.3
		c-0.4-1.4-1.2-2.8-2.2-3.9c0-0.1,0-0.1,0.1-0.2c0.1-0.3-0.1-0.5-0.3-0.6c-0.3-0.1-0.5,0.1-0.6,0.3l-0.9,2.7c0,0-0.1,0-0.1,0.1
		c-0.4,0.6-0.7,1.3-0.8,1.9c-0.1,0.2-0.2,0.3-0.3,0.5c-0.1,0.2,0,0.4,0.1,0.6c-0.2,1.7,0.1,3.5,0.3,5.2c0.2,1.7,0.3,3.2-0.2,4.9
		c-0.4,1.5-0.6,2.9-0.4,4.4c0,0.2,0.2,0.3,0.3,0.3c0,0,0,0.1,0,0.1c0.1,0.1,0.2,0.2,0.4,0.1c0.1,0,0.3,0,0.4-0.1l0.3-0.4
		c0.3,0.2,0.7,0.2,0.8-0.2c0-0.3,0.1-0.6,0.1-0.8c0.8,0.4,1.9,0.4,2.7-0.1c0.2-0.2,0.3-0.4,0.2-0.7c-0.1-0.2-0.4-0.3-0.7-0.2
		c0,0-0.1,0-0.1,0c0,0,0,0,0,0c-0.1,0-0.1,0-0.2,0c0,0-0.1,0-0.1,0c0,0-0.2,0-0.1,0c-0.1,0-0.1,0-0.2,0c0,0-0.2-0.1-0.1,0
		c-0.1-0.1-0.2-0.1-0.3-0.2c-0.3-0.2-0.5-0.5-0.7-0.9c0.1-0.7,0.1-1.4,0.1-2.1c0,0,0,0,0,0c0.3-0.7,0.9-1.3,1.4-1.9
		c0.2,0.2,0.4,0.2,0.7,0c1-1,1.8-2.2,2.2-3.5c0.1-0.2,0.1-0.4,0.1-0.7C463.8,315.9,463.8,315.7,463.8,315.6z M459.9,318.9
		c-0.1,0.1-0.2,0.2-0.3,0.3c0-0.2,0-0.4,0-0.5c0-0.7-0.1-1.5-0.2-2.2c0,0,0.1-0.1,0.1-0.1c0,0,0,0,0,0c0.1,0,0.1-0.1,0.2-0.1
		c0,0,0.1-0.1,0.1-0.1c0-0.1,0.1-0.2,0.1-0.3c0,0,0-0.1,0-0.1c0-0.1-0.1-0.2-0.1-0.2c-0.1-0.1-0.1-0.1-0.2-0.2c0,0-0.1-0.1-0.2-0.1
		c-0.1,0-0.1,0-0.2,0c0.1,0,0.2-0.1,0.2-0.2c0.1-0.3,0.2-0.5,0.2-0.8c0.9,0.4,1.2,1.4,1.1,2.4C460.6,317.4,460.3,318.2,459.9,318.9z
		"/>
	<path class="st45" d="M466.9,337.8c-0.2-0.6-1.2-0.3-1,0.3c0.2,0.7,0.3,1.6,0,2.3c-0.1,0.3-0.3,0.4-0.6,0.5c0-0.4-0.6-0.6-0.9-0.2
		c-0.8,1-2.4,0.4-3.3,0c-0.7-0.3-1.4-0.6-2-0.9c-0.3-0.1-0.7-0.3-1-0.4c-0.1-0.1-0.3-0.1-0.4-0.2c-0.1,0-0.1-0.1-0.2-0.1
		c-0.1-0.1-0.1-0.1,0-0.1c0.1-0.3-0.1-0.6-0.4-0.6c-0.1-3.4,1.5-6.7,0.9-10.2c-0.1-0.6-1.1-0.4-1,0.3c0.7,3.6-1.3,7.1-0.8,10.7
		c0,0.3,0.3,0.5,0.6,0.5c0.3,0.3,0.8,0.6,1.2,0.7c0.4,0.2,0.9,0.4,1.3,0.6c1.1,1.7,3.3,1.7,5,1.3c0.9-0.2,2.1-0.5,2.6-1.4
		C467.3,339.9,467.3,338.8,466.9,337.8z"/>
	<path class="st35" d="M494.1,303.4c-0.5-9.7-3.8-10.1-3.8-20.2c0-9.2,2.8-11.6,3-18.7c0.2-5.8-1.5-11.9-11-26.1
		c-10.5-15.7-17.9-26.8-32.6-38.5c-16.7-13.3-32.3-18.9-42.7-22.5c-18.8-6.6-31.1-10.9-47.4-8c-3.9,0.7-25,4.7-40,22.8
		c-10.5,12.6-13.2,26.2-16.9,44.7c-2,9.8-2.5,17.3-3,24.9c-0.1,2-0.2,3.9-0.3,5.8c1.8-0.4,3.8-0.8,6.1-1.1c0.4-1.3,1-2.9,1.6-5
		c0.1-0.3,0.2-0.7,0.3-1c1.4-4.8,2.2-8.5,3.6-14.4c2-9,1.7-9.2,3.6-18.1c2.2-10.1,3.3-15.2,5.3-19.3c4.3-8.4,10.1-13.2,11.8-14.5
		c4.7-3.7,9-5.3,12.2-6.5c5.5-2.1,17-6.5,29.3-3.6c8.5,2,13.6,6.7,22.5,15.1c5.7,5.3,13.2,13.4,25.2,31.4c1.6,2.5,4.8,7.3,8.9,14.2
		c0,0.1,0,0.2,0,0.3c1.4,4.4,4,8.2,6.7,11.9c0.2,0.7,0.5,1.4,0.9,2c0.3,1,0.8,1.8,1.3,2.6c0.5,1,0.9,2.1,1.4,3.1
		c0.4,1.1,0.8,2.1,1.3,3.1c0,0.1,0,0.3,0,0.4c0.1,0.2,0.2,0.3,0.3,0.5c0,0,0,0.1,0,0.1c0,0.1,0.1,0.2,0.1,0.3c0,0.1,0,0.2,0,0.2
		c0,0.1,0.1,0.1,0.1,0.2c0.2,0.5,0.4,0.9,0.6,1.3c0.2,0.5,0.5,1,0.7,1.5c0.1,0.2,0.2,0.2,0.3,0.2c0.1,0.1,0.2,0.2,0.4,0.4
		c0.2,0.1,0.4,0.2,0.6,0.2c0,0,0,0.1,0,0.1c0,0.4,0.4,0.6,0.7,0.4c0,0.1,0.1,0.2,0.1,0.3c0.9,0.5,1.8,1,2.7,1.4
		c-0.1,1.4-0.2,2.9-0.2,4.3c0.9,2.1,2.1,4.9,3.7,8.6c0.7,2.1,1.5,4.1,2.4,6.1c0,0.1,0,0.1,0.1,0.2c0.3,0.6,0.5,1.1,0.8,1.6
		c0.3,0.6,0.7,1.3,1,1.9c1.7,3.9,3.7,8.5,6.1,13.9c0.5,1.2,1,2.4,1.5,3.5c0.9,1,2,2.8,2.1,4.5c-0.2,0.7-0.1,1.5,0.2,2.2
		c0.2,0.7,0.6,1.4,0.9,2c0.4,0.8,0.7,1.6,1,2.4c0.7,2.1,1.3,4.3,1.7,6.5c0.3,2,0.4,4,0.2,5.9c-0.6,2.8-1.8,5.4-3,8
		c-1,1.3-1.9,2-3.4,4.1c-1.7,2.3-2.9,4.8-3.8,7.4c-0.6,0.8-1.2,1.6-1.6,2.5c-0.7,1.7-0.5,3.8-0.5,5.6c-0.1,4-0.1,7.9,0,11.9
		c0,0.3,0.3,0.6,0.6,0.5c0.1,0,0.1-0.1,0.2-0.1c0,0,0.1,0,0.1,0.1c0,0,0,0,0,0c0,0,0,0,0,0c0.1,0,0.3,0,0.5,0
		c0.8-0.4,1.5-0.9,2.1-1.6c1.3-0.8,2.7-1.7,4-2.5c2.5-7.6,5.4-13.3,7.7-17.2c3-5.1,4.7-6.8,8.3-13c1.4-2.5,4.5-7.8,7.1-14.2
		C491.1,322.7,494.7,314,494.1,303.4z"/>
	<path class="st35" d="M309.6,298.1C309.6,298.1,309.6,298,309.6,298.1c0-0.1,0-0.2,0-0.2c0,0,0,0,0-0.1c0,0,0-0.1,0-0.1
		c0-0.1,0-0.2-0.1-0.3c-0.1-0.2-0.4-0.3-0.6-0.3c-0.2,0-0.3,0.1-0.4,0.2c-0.1,0-0.3,0-0.4,0c-0.1,0-0.3,0.1-0.4,0.1
		c-0.1,0.1-0.2,0.2-0.1,0.4c0,0.1,0,0.3,0.1,0.4c0,0,0.1,0.1,0.1,0.1c0,0,0,0,0.1,0c0,0.3,0.2,0.4,0.4,0.5c-0.1,0.7-0.1,1.4-0.3,2.1
		c-0.1,0.5-0.2,0.9-0.3,1.4c0,0.1-0.1,0.3-0.1,0.5c-0.1,0.2-0.2,0.5-0.3,0.7c-0.1,0.2-0.1,0.3,0,0.5c-0.1,0.2-0.1,0.3-0.2,0.5
		c-0.3,0.6-0.5,1.3-1,1.8c-0.5,0.4,0.2,1.2,0.7,0.7c0.4-0.4,0.6-0.8,0.8-1.3c0.3-0.6,0.5-1.2,0.7-1.8c0.1-0.3,0.2-0.7,0.3-1
		c0.5-1.1,0.8-2.4,0.8-3.6c0,0,0-0.1,0-0.1c0-0.1,0-0.2,0-0.2C309.6,298.5,309.6,298.3,309.6,298.1
		C309.6,298.1,309.6,298.1,309.6,298.1C309.6,298.1,309.6,298.1,309.6,298.1z"/>
	<path class="st40" d="M309.6,296.7c0-0.1-0.1-0.2-0.2-0.3c-0.2-0.1-0.4-0.2-0.5-0.3c0,0-0.1,0-0.1,0c0,0-0.1-0.1-0.1-0.1
		c0,0-0.1-0.1-0.2-0.1c-0.1,0-0.3,0-0.4,0.1c0,0,0,0-0.1,0c-0.1,0-0.2-0.1-0.3-0.1c-0.1-0.1-0.2-0.1-0.4-0.1c-0.1,0-0.2,0.1-0.3,0.2
		c-0.1,0.2-0.1,0.6,0.2,0.7c0.1,0.1,0.2,0.1,0.3,0.2c0.1,0,0.2,0.1,0.3,0.2c0.1,0.1,0.1,0.1,0.2,0.2c0.1,0.1,0.2,0.1,0.3,0.1
		c0.1,0,0.2,0.1,0.4,0.1c0,0,0,0,0.1,0c0,0,0,0,0,0c0,0,0,0,0,0c0.1,0.1,0.2,0.1,0.3,0.1c0.1,0,0.3-0.1,0.4-0.1
		c0-0.1,0.1-0.1,0.1-0.2c0-0.1,0.1-0.1,0.1-0.2C309.6,296.9,309.6,296.8,309.6,296.7z"/>
	<path class="st26" d="M309.5,291.1c0-0.1-0.1-0.1-0.1-0.2c0,0,0,0,0,0c0-0.2,0.1-0.4,0.2-0.6c0,0,0,0,0,0c0.1-0.1,0.1-0.2,0-0.4
		c0-0.1-0.1-0.2-0.2-0.3c-0.1-0.1-0.3-0.1-0.4-0.1c-0.1,0-0.2,0.1-0.3,0.2c-0.1,0.3-0.3,0.7-0.3,1c0,0.2,0,0.4,0.1,0.6
		c0,0.1,0.1,0.1,0.1,0.2c0,0,0,0,0,0l0,0c0,0,0,0,0,0c0,0.2,0.2,0.4,0.5,0.4c0.3,0,0.5-0.2,0.5-0.5
		C309.6,291.4,309.6,291.2,309.5,291.1z"/>
	<path class="st40" d="M448,276.2C448,276.2,448,276.2,448,276.2c0.1-0.1,0.1-0.2,0.1-0.3c0-0.1,0-0.1,0-0.2c0-0.1,0-0.1,0-0.2
		c0-0.1,0-0.1-0.1-0.2c0-0.1-0.1-0.1-0.2-0.2c-0.1,0-0.1-0.1-0.2-0.1c-0.1,0-0.1,0-0.2,0c-0.1,0-0.1,0.1-0.1,0.1c0,0,0,0,0,0
		c0,0,0,0,0,0c0,0,0,0,0,0c0,0,0,0,0,0c-0.7-0.7-1.8-1.1-2.8-1.6l-4.8-2.3c0-0.2-0.1-0.4-0.2-0.5c-1-0.5-2.1-1-3.1-1.5
		c-0.1,0-0.2-0.1-0.3,0c-0.1-0.1-0.2-0.2-0.4-0.3c-1.4-0.7-2.8-1.4-4.2-2.1c-0.2-0.2-0.4-0.4-0.7-0.5c-0.6-0.3-1.2-0.6-1.9-0.9
		c-0.1-0.1-0.1-0.1-0.2-0.2c-1.3-0.6-2.5-1.3-3.8-1.9c-0.4-0.2-0.8-0.5-1.3-0.7c0,0,0,0,0-0.1l-0.2-0.3c-0.2-0.2-0.4-0.3-0.7-0.4
		c-0.5-0.2-1-0.4-1.5-0.5c-0.1-0.1-0.2-0.1-0.2-0.2c-0.1,0-0.1-0.1-0.2-0.1c-0.1-0.1-0.2-0.1-0.4-0.1c-1.5-0.9-2.9-1.8-4.3-2.8
		c-0.5-0.4-1.1-0.5-1.7-0.3c-0.4-0.3-0.8-0.6-1.2-0.9c-1.3-0.9-2.8-1.5-4.3-1.7c-0.1-0.1-0.2-0.3-0.4-0.3c-0.4-0.2-0.9-0.2-1.3-0.3
		c-0.5-0.1-0.9-0.2-1.4-0.3c-1.8-0.4-3.5-0.7-5.3-0.9c-0.8-0.3-1.6-0.4-2.4-0.4c-0.1,0-0.3,0.1-0.3,0.1c-1.7-0.3-3.4-0.5-5.1-0.5
		c-0.5-0.1-0.9-0.2-1.4-0.2c-1.4-0.1-2.8-0.2-4.3-0.4c-0.2,0-0.3,0.1-0.4,0.3c-0.7-0.1-1.4-0.2-2.1-0.2c-0.1,0-0.3,0.1-0.4,0.2
		c-0.1,0-0.2,0-0.4,0c-0.1,0-0.2,0.1-0.3,0.1c-0.5,0-0.9,0-1.4,0c-0.2,0-0.3,0-0.5,0c-0.1,0-0.2,0-0.2,0c-0.5,0-1,0-1.6-0.1
		c-0.1,0-0.2,0-0.3,0c-0.1,0-0.2,0.1-0.3,0.1c-0.7-0.1-1.3-0.1-2,0c-1.1-0.1-2.3-0.1-3.4,0c-0.3,0-0.4,0.2-0.5,0.4
		c-0.1,0-0.2,0-0.3,0c-0.2,0-0.3,0.1-0.3,0.1c-0.6,0-1.3,0-1.9,0c-0.2,0-0.4,0.1-0.4,0.3c-0.3,0-0.6,0-0.8,0c0,0,0,0,0,0
		c-0.4,0-0.7,0-1,0.1c-0.1,0-0.2,0.1-0.2,0.1c-0.1,0-0.2,0-0.3,0c-0.1,0-0.3,0.1-0.4,0.2c-0.2,0-0.3,0-0.5,0c-0.1,0-0.2,0-0.2,0.1
		c0,0-0.1,0-0.1,0c-0.6,0-1.1,0-1.7,0.2c-0.2,0-0.2,0.1-0.3,0.3c-0.6,0.1-1.2,0.2-1.7,0.4c-0.7,0.1-1.5,0.2-2.2,0.3
		c-0.1,0-0.2,0.1-0.3,0.2c-1.5,0.3-3,0.7-4.4,1.2c0,0-0.1,0-0.1,0c-0.1,0-0.1,0-0.2,0.1c-0.4,0.1-0.8,0.3-1.2,0.5c0,0,0,0,0,0
		c-0.2,0.1-0.4,0.1-0.7,0.2c-0.1,0-0.2,0.1-0.3,0.2c-0.2,0-0.3,0.1-0.5,0.1c-1,0.1-1.9,0.4-2.9,0.8c0,0,0,0,0,0c0,0,0,0,0,0
		c0,0-0.1,0-0.1,0c-0.2,0.1-0.3,0.3-0.2,0.5c-1.7,0.6-3.4,1.3-5,2.1c-0.2-0.1-0.3,0-0.5,0.1c-0.1,0.1-0.1,0.2-0.2,0.2
		c-1,0.5-1.9,1-2.8,1.5c0,0,0,0,0,0c-1.4,0.5-2.6,1.1-4,1.7c-1.4,0.6-2.8,1-4.2,1.4c-0.1-0.2-0.4-0.3-0.7-0.2
		c-0.6,0.3-1.2,0.5-1.8,0.7c-2.6,0.5-5.2,0.8-7.9,1c-1.5-0.1-3.1-0.2-4.6-0.4c-0.3,0-0.4,0.1-0.5,0.3c-0.1-0.1-0.2-0.1-0.4-0.2
		c-0.2-0.1-0.3,0-0.4,0.1c-1.2-0.4-2.4-0.6-3.7-0.7c-1.1,0-2.2,0-3.2,0c-0.8,0-1.7,0-2.5,0.1c-0.1,0-0.2,0-0.3,0
		c-0.1-0.2-0.2-0.3-0.4-0.3c-0.1,0-0.2,0-0.4,0c-0.2,0-0.4,0-0.6,0c-0.1-0.1-0.2-0.1-0.3-0.1c-0.6,0.1-1.2,0.2-1.8,0.3
		c-0.8,0-1.5,0.1-2.3,0.2c-0.5,0.1-1,0.2-1.5,0.3c-0.1,0-0.3,0.1-0.4,0.1c-0.3,0.1-0.6,0.1-0.9,0.2c-1,0.3-1.9,0.7-2.8,1.2
		c-0.4,0.2-0.8,0.4-1.2,0.6c0,0-0.1,0-0.1,0c-1.6,0.5-3.2,1.3-4.7,2.3c-0.6,0.5-1.2,1-1.7,1.6c0,0,0,0-0.1,0.1c0,0,0,0,0,0
		c0,0,0,0,0,0c0,0,0,0,0,0c-0.1,0.1-0.3,0.2-0.4,0.3c-0.2-0.1-0.4-0.1-0.5,0.1l-0.6,0.7c-0.1-0.1-0.3-0.1-0.5,0
		c-1,0.6-2.1,1.3-2.8,2.2c-0.1,0.1-0.1,0.2-0.1,0.2c-0.1,0-0.2,0-0.3,0.1c-0.1,0.1-0.3,0.3-0.4,0.4c-0.1,0.1-0.2,0.2-0.3,0.2
		c-0.1,0-0.2-0.1-0.3,0c-0.9,0.2-1.6,0.9-1.9,1.8c-0.2,0.1-0.5,0.1-0.7,0.2c-0.1,0.1-0.2,0.2-0.2,0.3c-0.2,0.1-0.4,0.4-0.2,0.7
		c0.1,0.1,0.2,0.3,0.2,0.4c0,0,0,0,0,0c0,1.3,0,2.5,0.1,3.8c0,0.9-0.1,1.9,0.3,2.8c-0.3,0.4,0.1,0.9,0.5,0.8c0,0,0.1,0,0.1,0
		c0,0.1,0.1,0.3,0.2,0.4c0,0,0.1,0.1,0.1,0.1c0.3,1,0.7,1.9,0.8,3c0.1,0.6,0.2,1.2,0.2,1.8c-0.1,1.7-0.1,3.5,0.1,5.2
		c0.1,0.6,0.2,1.2,0.4,1.8c0,0.3,0.1,0.5,0.2,0.8c0,0.1,0.1,0.2,0.2,0.2c0.1,0.1,0.1,0.3,0.2,0.4c-0.2,0.1-0.3,0.2-0.3,0.4
		c0.1,0.7,0.3,1.2,0.6,1.8c0.3,0.6,0.6,1.2,0.8,1.9c0.5,1.3,0.9,2.6,1.3,4c0,0.2,0.2,0.3,0.3,0.3c0.2,0.9,0.6,1.8,1.1,2.6
		c0.3,0.5,0.7,1,1.1,1.4c0.2,0.2,0.4,0.4,0.7,0.6c0,0,0,0,0.1,0c-0.2,0.2-0.2,0.6,0.1,0.7c0.6,0.3,1.3,0.4,2,0.5
		c0.8,0.1,1.5,0.3,2.3,0.3c0.1,0,0.2,0,0.3,0c0.1,0.1,0.2,0.2,0.3,0.2c1.6,0.2,3.2-0.1,4.7-0.4c1-0.2,2.1-0.4,3.1-0.6
		c0.1,0.3,0.3,0.4,0.6,0.3c0.8-0.1,1.5-0.3,2.3-0.5c1.6-0.4,3.2-0.8,4.7-1.4c0.1,0.1,0.3,0.1,0.5,0c0.4-0.2,0.7-0.4,1.1-0.6
		c0.1,0,0.1,0,0.2,0c0,0,0.1,0,0.1-0.1c0,0,0,0,0,0c0,0,0,0,0,0c0.4-0.1,0.7-0.3,1-0.5c0,0,0.1,0,0.1,0c1.1-0.2,1.9-0.8,2.5-1.7
		c1.6-1.1,2.9-2.6,3.7-4.4c0.2-0.3,0.4-0.7,0.5-1c0.4-0.8,0.6-1.7,0.8-2.5c0,0,0.1-0.1,0.1-0.2c0,0,0,0,0-0.1c0.2-0.3,0.4-0.6,0.5-1
		c0.1-0.2,0.2-0.5,0.3-0.7c0.1-0.3,0.2-0.7-0.1-0.9c-0.1,0-0.1-0.1-0.2-0.1c0.1-0.3,0.2-0.6,0.2-0.8c0-0.1,0-0.2,0-0.3
		c0.1-0.2,0.2-0.5,0.2-0.7c0.3-1.1,0.4-2.2,0.4-3.3c0,0,0,0,0,0c0.1-0.3,0.1-0.7,0.2-1c0.2-0.1,0.3-0.2,0.3-0.5c0-0.2,0-0.4,0-0.7
		c0.1,0,0.2-0.1,0.3-0.3c0.1-0.5,0.2-1.1,0.3-1.6c0.3-2,0.6-3.9,0.7-5.9l0,0c0.1-0.1,0.1-0.1,0.1-0.2c0.1-1,0.2-2,0.1-2.9
		c0-0.1,0-0.1,0-0.2c0,0,0,0,0,0c0.1-0.2,0.2-0.5,0.2-0.8c0-0.2,0-0.4-0.1-0.6c0,0,0-0.1,0-0.1c0.1-0.3,0.1-0.6,0.2-1
		c0-0.1,0-0.1,0-0.2c0.7-0.8,1.1-1.8,1.5-2.7c0.6-0.5,1.3-0.9,1.9-1.4c0.1-0.1,0.1-0.2,0.1-0.4c0.1,0,0.1,0,0.2-0.1
		c1.5-0.9,3.3-1.4,5-1.5c1.7-0.1,3.7,0,5.2,0.9c0.2,0.1,0.3,0.1,0.4,0c0.5,0.4,0.8,0.8,1.1,1.3c0.1,0.1,0.2,0.2,0.4,0.2
		c0.2,0.8,0.3,1.6,0.6,2.4c0,0.1,0.1,0.2,0.1,0.2c0,0.1,0,0.1,0,0.1c0,0.1,0.1,0.1,0.1,0.2c0,0,0.1,0.1,0.1,0.1c0,0.2,0,0.4,0,0.6
		c0,0.1,0,0.1,0,0.2c-0.2,0.1-0.3,0.3-0.2,0.6c0.2,0.7,0.4,1.4,0.6,2.1c-0.1,0.1-0.2,0.2-0.2,0.4c0.1,2.5,0.8,4.8,1.6,7.1
		c0.8,1.9,1.5,3.9,2.8,5.6c0,0,0,0,0,0.1c0.1,0.2,0.3,0.4,0.4,0.7c-0.1,0.1-0.2,0.2-0.2,0.4c0,0.3,0.2,0.5,0.5,0.5c0,0,0,0,0,0.1
		c0.1,0.1,0.1,0.2,0.2,0.3c0.1,0.2,0.3,0.5,0.4,0.7c0.3,0.5,0.7,0.9,1.1,1.3c0.2,0.2,0.3,0.3,0.5,0.5c0,0,0,0,0,0c0,0,0,0,0.1,0
		c0.6,0.6,1.1,1.2,1.6,1.8c0.1,0.1,0.2,0.1,0.3,0.1c1.4,1.2,2.8,2.4,4.6,2.8c0,0,0.1,0,0.1,0c0.9,0.1,1.8,0.2,2.8,0.2
		c0,0.1,0,0.1,0,0.2c0.2,0.3,0.6,0.4,0.9,0.3c0.4,0,0.8,0,1.2,0c0.1,0.2,0.3,0.3,0.5,0.2c0.3-0.1,0.6-0.1,0.9-0.1
		c0.1,0,0.2,0.1,0.3,0.1c0.4,0,0.7,0,1.1,0c0.1,0.2,0.2,0.3,0.4,0.3c0.2,0,0.4,0.1,0.5,0.1c0.2,0,0.3,0,0.5,0c0.6,0,1.3,0,1.9,0
		c0.1,0,0.2,0,0.2-0.1c0.7,0.1,1.4,0.2,2.2,0.1c0,0,0.1,0,0.1,0c1.2,0.1,2.3,0.2,3.5,0.2c0.8,0,1.5,0,2.3-0.1c0.1,0,0.1,0,0.2,0
		c1.6,0.1,3.2,0.1,4.8,0.2c1.5,0.1,2.9,0.1,4.3-0.3c0.1,0,0.2-0.1,0.2-0.2c0.1,0,0.2,0,0.3,0c0.1,0,0.2,0,0.3,0c0,0,0.1,0,0.1,0
		c1,0,2.1-0.1,3.1-0.2c0.7-0.1,1.3-0.3,2-0.5c0.6-0.2,1.1-0.3,1.6-0.6c0.4,0.3,0.9,0.4,1.3,0.3c0.6-0.2,1.2-0.5,1.7-0.8
		c0.1,0,0.1,0,0.2,0c2.8-0.6,5.2-2.3,6.9-4.6c0.1-0.2,0.2-0.5,0.2-0.7c0.4-0.6,0.8-1.3,1.1-2.1c0,0,0.1-0.1,0.1-0.1
		c0.3-0.4,0.5-0.8,0.6-1.2c0.6-0.4,0.8-1.2,0.5-1.9c0.1-0.3,0.2-0.5,0.3-0.8c0-0.1,0.1-0.2,0.1-0.2c0.2-0.5,0.3-1,0.5-1.5
		c0.1-0.2,0.1-0.3,0.1-0.5c0.1-0.4,0.3-0.8,0.4-1.1c0.5-1.9,0.7-4,0.9-6c0.2-0.3,0.4-0.6,0.4-1c0.4-4.2,0.6-8.3,0.6-12.5
		c0,0,0.1-0.1,0.1-0.1c0.3-0.6,0.5-1.2,0.7-1.9c0,0,0,0,0.1,0c0.1-0.1,0.2-0.2,0.3-0.2c0,0,0,0,0-0.1c0.7,0,1.5-0.4,2-0.9
		c0.7,0.3,1.4,0.6,2.1,0.9c0.3,0.1,0.6,0.2,0.8,0.2c1.3,0.8,2.5,1.5,4,1.9c0.1,0,0.1,0,0.2,0c1.5,0.7,3,1.5,4.5,2.1
		c1.6,0.7,3.1,1.4,4.7,2.1c0,0.1,0.1,0.1,0.2,0.2c1.8,0.8,3.6,1.7,5.4,2.5c1,0.5,2,1,3,1.4c0,0.2,0.1,0.3,0.3,0.4
		c4.1,1.5,8,3.5,12,5.4c0.1,0.1,0.3,0.1,0.4,0c0.1,0.1,0.2,0.1,0.3,0.2c0.3,0.2,0.7,0,0.8-0.4c0-0.1,0-0.3,0-0.4c0,0,0,0,0,0
		c0,0,0,0,0,0c0,0,0-0.1,0-0.1c0-0.1,0-0.1,0-0.2c0-0.1,0.1-0.3,0.1-0.4c0-0.1,0-0.1,0.1-0.2c0,0,0-0.1,0-0.1c0,0.1,0,0,0,0
		c0.1-0.2,0.1-0.3,0-0.4c0-0.1-0.1-0.1-0.2-0.2c0.1-0.3,0.2-0.6,0.2-1C448.3,278.7,448.4,277.3,448,276.2z M321.9,277.4
		c-0.2,0.1-0.4,0.2-0.4,0.5c-0.2,2.7-0.5,5.5-0.8,8.2c-0.2,0.8-0.4,1.5-0.5,2.3c0,0,0,0.1,0,0.1c0,0,0,0,0,0c0,0,0,0,0,0
		c0,0,0,0,0,0.1c0,0.4,0,0.8,0,1.2c-0.1,0.4-0.2,0.9-0.3,1.3c0,0.1,0,0.2,0,0.3c-0.1,0.8-0.3,1.6-0.5,2.3c-0.1,0.2,0.1,0.4,0.2,0.5
		c0,0,0,0.1,0,0.1c0,0.1-0.1,0.1-0.1,0.2c0,0,0,0.1,0,0.1c-0.2,0.8-0.3,1.5-0.5,2.3c-0.1,0.3,0.1,0.5,0.3,0.6
		c-0.1,0.2-0.1,0.5-0.2,0.7c-0.4,1.1-1,2.1-1.1,3.3c0,0,0,0.1,0,0.1c0,0.1-0.1,0.1-0.1,0.2c-0.1,0-0.3,0.1-0.3,0.3
		c-0.1,0.3-0.2,0.6-0.3,0.8c-0.8,1.1-1.7,2.2-2.4,3.3c-0.2,0.2-0.3,0.5-0.4,0.7c-0.3,0.3-0.7,0.6-1,0.9c-0.2,0.1-0.2,0.3-0.1,0.5
		c-0.5,0.4-0.9,0.7-1.4,1c0,0-0.1,0-0.1,0c-3.7,1.7-7.4,3.2-11.2,4.5c0,0,0,0,0,0c-2.7,0.2-5.4,0.5-8,0.7c-0.1,0-0.2,0-0.2,0.1
		c-0.5,0-1.1-0.2-1.5-0.4c-0.5-0.3-1.1-0.5-1.6-0.8c0.1-0.2,0-0.4-0.1-0.6c-0.6-0.7-1.1-1.5-1.6-2.3c0-0.1,0-0.2,0-0.3
		c-0.4-0.9-0.9-1.7-1.5-2.4c0,0,0,0,0,0c-0.3-0.6-0.6-1.1-0.7-1.8c0-0.2-0.1-0.4-0.1-0.5c-0.3-1.1-0.6-2.1-0.7-3.2
		c0-0.2-0.1-0.4-0.3-0.5c-0.1-0.4-0.1-0.8-0.2-1.2c0-0.1-0.1-0.2-0.1-0.4c0.1-0.1,0.1-0.2,0.1-0.3l-1.4-7.5c0-0.1-0.1-0.2-0.1-0.2
		c0-0.3-0.1-0.6-0.1-0.9c-0.1-0.4-0.2-0.8-0.3-1.3c0.3,0,0.6-0.2,0.5-0.6c-0.1-0.4-0.2-0.8-0.4-1.2c0.2-0.1,0.4-0.3,0.3-0.6
		c-0.1-0.6-0.2-1.2-0.3-1.8c0.2,0,0.4-0.2,0.4-0.5c-0.1-1.5,0.1-2.9,0.5-4.3c0.1,0,0.2-0.1,0.3-0.2c0.3-0.5,0.5-1,0.6-1.5
		c0,0,0.1-0.1,0.1-0.1c0.3-0.6,0.7-1.3,1.1-1.9l0.5-0.5c0.1,0,0.3,0,0.4,0c0.4-0.2,0.8-0.5,1.2-0.8c0.1-0.1,0.1-0.2,0.1-0.4
		c0-0.1,0-0.2-0.1-0.2c0.1-0.1,0.2-0.3,0.4-0.4c0.1,0,0.3,0,0.4-0.1c0.2-0.2,0.5-0.4,0.7-0.6c0.1,0.1,0.3,0.1,0.5,0
		c1.7-1.1,3.4-2.1,5.2-3c0.1,0,0.3,0,0.4-0.1c0.1-0.1,0.2-0.1,0.3-0.2c0.4-0.2,0.9-0.4,1.3-0.6c0,0,0,0,0,0c0.1,0,0.1-0.1,0.2-0.1
		c0.4-0.2,0.8-0.3,1.3-0.5c0.1,0.2,0.3,0.3,0.5,0.2c1.3-0.5,2.6-0.9,4-1.1c0.7-0.1,1.3-0.2,2-0.4c0.4-0.1,0.9-0.2,1.3-0.4
		c0.2,0,0.5-0.1,0.7-0.1c0.1,0,0.2-0.1,0.3-0.2c0,0,0.1,0,0.1,0c0.2,0,0.3,0,0.4-0.1c0.8-0.1,1.5-0.2,2.3-0.2c0.1,0,0.1,0,0.2,0
		c0.2,0,0.4,0,0.6,0c1,0,2,0,3,0c1.6,0.1,3.1,0.5,4.5,1c0.4,0.4,0.7,0.9,1.1,1.3c0.5,0.4,1.1,0.8,1.5,1.2c0.2,0.4,0.4,0.7,0.5,1.1
		c0.1,0.5,0.2,1.1,0.5,1.6c0,0,0,0,0,0c0.1,1.1,0.2,2.2,0.2,3.3c0,0.2,0.1,0.3,0.2,0.4C321.9,277.3,321.9,277.3,321.9,277.4z
		 M342.4,285L342.4,285c-0.1-0.2-0.2-0.3-0.3-0.4c-0.4-1.5-0.7-2.9-1.1-4.4c0.4,1.5,0.8,3,1.4,4.5c0,0.1,0.1,0.1,0.1,0.2
		c0,0,0,0,0,0.1C342.5,284.9,342.5,284.9,342.4,285z M349.1,299.1c0,0,0.1-0.1,0.1-0.1c0.1,0.1,0.3,0.3,0.4,0.4
		c0.1,0.1,0.1,0.1,0.2,0.1c0.2,0.3,0.4,0.7,0.6,1c0.1,0.1,0.2,0.2,0.3,0.2c0,0.1,0,0.1,0,0.2C350.2,300.3,349.6,299.7,349.1,299.1z
		 M403,268.8c0,3.1-0.1,6.2-0.3,9.3c-0.2,0.2-0.3,0.5-0.3,0.8c0,0.4-0.1,0.8-0.1,1.1c-0.1,0.2-0.1,0.4-0.1,0.6
		c-0.3,2.4-0.4,4.9-1,7.3c-0.5,1.9-1.3,3.7-2.1,5.5c-1.2,1-2.3,2.1-3.3,3.1c-0.7,0.7-1.5,1.5-2.3,2.2c0,0-0.1,0.1-0.2,0.2
		c-0.1,0-0.2,0.1-0.2,0.1c-0.2,0.2-0.5,0.3-0.7,0.5c-0.5,0.3-0.9,0.5-1.4,0.8c-0.3,0.1-0.5,0.4-0.6,0.7c-0.2,0.1-0.4,0.2-0.6,0.3
		c-0.2,0.1-0.4,0.1-0.6,0.2c-0.4,0.1-0.8,0.3-1.2,0.4c-0.9,0.3-1.8,0.6-2.7,0.9c-0.2,0.1-0.5,0.2-0.7,0.2c-0.1-0.1-0.2-0.1-0.3-0.2
		c0,0-0.1,0-0.1,0c0,0,0,0,0,0c0,0,0,0-0.1,0c-0.1,0-0.1,0-0.2,0c-0.2,0-0.4,0.1-0.6,0.1c-0.1,0-0.2,0.1-0.3,0.2
		c-0.2,0-0.5,0.1-0.7,0.1c-1.5,0.1-3.1,0.1-4.6,0.2c-0.1,0-0.2,0.1-0.3,0.1c-3,0-6.1-0.1-9.1-0.2c-0.1,0-0.2,0-0.3,0.1
		c-1,0-2-0.1-3-0.1c-0.5,0-1.1-0.1-1.6-0.1c-0.3,0-0.7,0.1-0.9,0.3c-1.1-0.1-2.2-0.2-3.3-0.3c-0.1-0.2-0.3-0.2-0.5-0.2
		c-0.6,0.1-1.2,0.1-1.9,0.1c-0.1-0.1-0.2-0.3-0.3-0.3c-0.9-0.1-1.9-0.2-2.8-0.6c-0.6-0.3-1.2-0.6-1.8-0.9c0.1-0.1,0.1-0.2,0.1-0.3
		c-0.1-1-0.4-2-0.7-2.9c-1.1-6.7-2.7-13.6-6.3-19.5c-0.5-0.9-1.1-1.7-1.7-2.5c-0.1-0.3-0.3-0.5-0.4-0.8c-0.2-0.6-0.4-1.3-0.8-1.8
		c-0.4-0.5-0.9-0.9-1.6-1c0-0.3,0-0.5-0.1-0.8c0.2-0.1,0.3-0.2,0.3-0.4c0-0.4,0-0.7,0.1-1.1c0-0.1,0-0.1,0-0.2c0,0,0.1-0.1,0.1-0.2
		c0.1-0.6,0.3-1.1,0.4-1.6c0,0,0.1-0.1,0.1-0.1c0.1-0.2,0.2-0.3,0.3-0.4c0,0,0.1-0.1,0.1-0.1c0,0,0,0,0-0.1c0,0,0,0,0,0c0,0,0,0,0,0
		c0,0,0,0,0-0.1c0,0,0.1-0.1,0.1-0.1c0.1-0.1,0.1-0.2,0.1-0.4c0-0.1,0-0.2-0.1-0.3c0.1-0.1,0.1-0.2,0.2-0.3c0,0,0,0,0,0
		c0.5-0.8,1.1-1.6,1.6-2.4c0.4-0.4,0.7-0.7,1.1-1.1c0.1-0.1,0.1-0.2,0.1-0.3c0.3-0.2,0.6-0.5,1-0.7c0.1,0,0.1-0.1,0.2-0.1
		c1-0.6,2-1.2,3-1.7c0,0,0.1-0.1,0.1-0.1c1-0.4,2.1-0.8,3.2-1.2c0.8,0,1.6-0.2,2.4-0.6c0,0,0.1,0,0.1,0.1c0.1,0,0.2,0.1,0.3,0.1
		c0,0,0.1,0,0.1,0c0.1,0,0.2-0.1,0.2-0.1c0,0,0,0,0.1-0.1c0,0,0.1-0.1,0.1-0.2c0,0,0,0,0,0c0.8,0,1.5-0.2,2.2-0.4
		c0.1,0,0.2-0.1,0.3-0.3c1.7-0.2,3.4-0.5,5.1-0.9c0.7-0.2,1.5-0.4,2.2-0.6c0.7-0.1,1.3-0.2,2-0.3c0.4,0,0.8-0.1,1.1-0.1c0,0,0,0,0,0
		c0.2,0,0.3,0,0.4-0.1c0,0,0.1,0,0.1,0c0,0,0,0,0,0c0.4,0,0.8-0.1,1.2-0.1c0,0,0,0,0,0c1.3-0.1,2.6-0.2,3.9-0.2
		c1.6,0,3.3,0.1,4.9-0.3c0.1,0,0.2-0.1,0.3-0.2c0.4,0,0.8,0,1.1,0.1c0.5,0,1,0,1.5,0.1c0.5,0,0.9,0.1,1.3-0.2c0,0,0,0,0,0
		c1.2,0.3,2.4,0.1,3.7,0.1c1.8,0,3.5,0.3,5.3,0.5c0.2,0,0.3-0.1,0.4-0.2c0.3,0,0.7,0,1,0c0.7,0.1,1.4,0.3,2.1,0.4
		c0.9,0.5,1.9,0.9,2.8,1.4c0.4,0.2,0.8,0.4,1,0.8c0.2,0.4,0.5,0.7,0.8,0.9c0.1,0.1,0.2,0.1,0.3,0.2c0,0.1,0.1,0.3,0.1,0.4
		c0.2,0.8,0.4,1.5,0.8,2.2c0.1,0.2,0.3,0.4,0.4,0.7c-0.1,0.3-0.1,0.6,0,0.9c0.1,0.3,0.2,0.6,0.3,0.9c0,0.2,0.1,0.4,0.1,0.6
		c0.1,0.9,0.2,1.8,0.4,2.6c0,0.1,0,0.3,0,0.4c0,0.2,0,0.4,0.1,0.5c0,0.1-0.1,0.2,0,0.4C403,268.4,403,268.5,403,268.8
		C403.1,268.7,403,268.7,403,268.8z"/>
	<path d="M428.9,388.9c-0.5-0.8-1.6-1.9-10.7-2c-14.7-0.2-17,2.5-21.8,0c-5.3-2.7-7-8.3-10.9-7.6c-1.3,0.2-2.2,1.1-2.9,1.8
		c-5.5,5.5-0.8,13.8-5.1,18c-2.2,2.1-5.5,2-12,1.8c-6.6-0.2-8.4-2.1-14.4-1.6c-5,0.4-5.9,1.8-7.8,1.1c-3-1.1-5.5-6.6-4-25.3h-6.2
		c-0.5,1.5-1.3,3.7-2,6.4c-1,4-1,5.5-1.6,7.8c-1.5,6-4.2,6.2-6,11.1c-1.3,3.7-1.5,8.4-0.1,12.5c0,0,0,0,0,0.1v0.1c0,0.1,0,0.1,0,0.2
		c0,0.1,0.1,0.1,0.1,0.2c0,0,0.1,0,0.1,0.1c0.6,1.6,1.4,3,2.5,4.3c0.6,0.7,2.9,3.1,10.2,5.1c3,0.8,5.6,1.2,8.4,1.3c0,0,0.1,0,0.1,0
		c1,0.1,2.1,0.2,3.1,0.3c0.7,0.2,1.4,0.3,2.1,0.4c1.1,0.1,2.1,0.1,3.2,0.1c0.3,0,0.5,0.1,0.8,0.1c1,0.3,2.1,0.3,3.2,0.2c0,0,0,0,0,0
		c0.1,0.1,0.2,0.2,0.4,0.1c0.1,0,0.3,0,0.4-0.1c0,0,0-0.1,0.1-0.1c0,0,0,0,0,0c0.7,0,1.5,0,2.2-0.1c0.3,0,0.6,0,0.9-0.1
		c1.2,0.1,2.4,0.2,3.6,0.1c0.7,0,1.4-0.1,2.1-0.2c0.2,0,0.5,0,0.7,0c0.2,0,0.3,0,0.5,0c1,0.3,2.1,0.4,3.1,0c0.2-0.1,0.4-0.2,0.6-0.3
		c0,0,0,0,0.1,0c0.1,0,0.2,0,0.3,0c0.1,0,0.1,0,0.2,0c0,0,0.1,0,0.1,0c0.1,0,0.1-0.1,0.2-0.1c0.1,0,0.1-0.1,0.2-0.1
		c0.3,0,0.5,0,0.8,0c0.5,0.1,0.9,0,1.4-0.1c0,0,0,0,0,0c0.3,0.2,0.6,0.1,0.9,0c0.4-0.1,0.9-0.2,1.3-0.3c0.1,0,0.2-0.1,0.3-0.2
		c0,0,0,0,0,0c0,0,0,0,0.1,0c0.1,0,0.1,0,0.2,0c0.4,0,0.7,0,1.1-0.1c0.2,0,0.4,0,0.6,0c0.1,0.1,0.2,0.1,0.3,0.1c0.7,0,1.5,0,2.1-0.3
		c0.1,0.1,0.2,0.2,0.3,0.2c0.7,0.2,1.4,0.1,2.1-0.2c0.2-0.1,0.3-0.4,0.2-0.6c0.1,0,0.1,0,0.2,0c0,0.1,0.1,0.2,0.1,0.2
		c0,0,0.1,0.1,0.1,0.1c0.1,0,0.2,0.1,0.3,0.1h0.1c0.1,0,0.1,0,0.2,0c0.1,0,0.1-0.1,0.2-0.1c0,0,0.1-0.1,0.1-0.2c0-0.1,0-0.1,0-0.2
		c0,0,0,0,0-0.1c0.3,0,0.5-0.1,0.8-0.1c0,0,0,0,0,0c0,0,0.1,0,0.1,0c0.1,0,0.2,0,0.3-0.1c0.1,0,0.1-0.1,0.2-0.1
		c3.3-0.6,6.6-1.4,10.6-3c12.1-4.8,19.1-12.4,23.3-17.1C425.3,398,430.7,392.1,428.9,388.9z"/>
	<path d="M326.1,334.3c-5.4,3.3-9.1,5.7-11.1,8.2c-2.5,3.2-5.1,6.5-5.6,11.3c-0.4,4,0.9,8.2,2,8.2c1,0,1-3.2,4-8
		c1.8-2.9,3.5-4.5,5.8-6.7c2.5-2.3,3.7-2.9,4.9-3.1c1.9-0.3,2.9,0.5,3.6,0C330.5,343.7,330.5,342.5,326.1,334.3z"/>
	<path d="M335.2,336.3c-2.1,2.6-3.1,6.4-0.7,8.7c1,1,2.2,1.2,2.7,1.3c5.3,1.2,10.2,3.5,15.3,5.1c7.3,2.3,5.3,2.8,15.8,6.7
		c3.9,1.4,5.9,2,8,4c3.9,3.8,4,8.3,5.1,8.2c1.3-0.2,0.3-5.9-0.7-12.4c-0.6-4.2-1.2-4.3-4.2-7.6c-1.9-2-2.3-4-8.9-6.2
		c-15.2-5.2-16.2-6.8-19.6-7.3C341,335.6,337.6,333.5,335.2,336.3z"/>
	<path class="st38" d="M389.3,422.8c-0.1-0.2-0.3-0.3-0.6-0.3c-0.6,0.1-1.2,0.3-1.8,0.4c-1.6,0.2-3.2,0.4-4.7,0.6
		c-1.2,0.1-2.5,0.2-3.6,0.6c-0.2,0-0.3,0-0.5,0c-0.1,0-0.2,0.1-0.2,0.1c-1.1,0.1-2.2,0.1-3.2,0.2c-0.2,0-0.3,0.1-0.4,0.2
		c-0.3,0-0.6,0.1-0.9,0.1c-0.1,0-0.1,0-0.2,0c-0.1,0-0.1,0-0.2,0c-0.1,0-0.1,0-0.2,0c-2.1,0.2-4.2,0.3-6.4,0.3
		c-0.3,0-0.5,0.2-0.5,0.5c-0.3,0-0.6,0.1-1,0.1c-1.3,0.1-2.7,0.4-4,0.4c0.2-0.3,0.1-0.8-0.4-0.8c-1.2-0.1-2.5-0.1-3.7,0.1
		c-0.6,0.1-1.2,0.1-1.8,0.2c-0.5,0.1-1,0.2-1.4,0.6c-0.5,0.4,0.2,1.2,0.7,0.7c0.3-0.3,0.8-0.3,1.2-0.4c0.4-0.1,0.8-0.1,1.2-0.1
		c0,0.1,0.1,0.3,0.3,0.3c2.5,0.8,5.1,0.3,7.7,0c1.5-0.2,3.1-0.3,4.6-0.5c0,0.3,0.4,0.7,0.7,0.4c0.9-0.6,1.9-0.7,2.9-0.8
		c1.2-0.1,2.3-0.3,3.5-0.4c0,0,0,0,0,0c0,0,0.1,0,0.1,0c0.1,0,0.2-0.1,0.2-0.1c0.1,0,0.3,0,0.4,0c0,0,0,0,0,0
		c-1.1,0.5-2.2,1-3.4,1.5c-0.4,0.2-0.3,0.8,0.1,0.9c0.2,0,0.4,0.1,0.5,0.1c0.4,0.1,0.6-0.2,0.6-0.5c0.8-0.4,1.6-0.7,2.4-1.1
		c1-0.4,2-0.9,3.1-1c0.2,0,0.3-0.2,0.4-0.3c0.9-0.1,1.8-0.2,2.7-0.2c1.5-0.1,3.2-0.1,4.5-0.9c0.3,0,0.6-0.1,0.9-0.1
		C389.6,423.8,389.7,423,389.3,422.8z"/>
	<path class="st36" d="M338.5,423.9C338.5,423.9,338.5,423.9,338.5,423.9c0-0.3-0.1-0.6-0.5-0.6c-0.1,0-0.2,0-0.3,0.1
		c-0.2-0.1-0.4-0.2-0.6-0.2c-0.6-0.2-1.2-0.4-1.8-0.6c-0.9-0.3-1.9-0.7-2.8-0.7c-0.5-0.3-0.9-0.6-1.5-0.6c-0.5,0-0.7,0.7-0.3,0.9
		c0.2,0.1,0.4,0.2,0.6,0.3c-0.1,0-0.2,0-0.3,0c-0.6-0.1-0.6,0.9,0,1c0.6,0.1,1.2-0.1,1.7-0.3c0.4,0.2,0.8,0.4,1.2,0.6
		c1.3,0.4,2.7,0.7,4.1,1C338.5,424.8,338.9,424.3,338.5,423.9z"/>
</g>
<g id="Layer_3" class="st0">
	<circle class="st48" cx="96.1" cy="144.3" r="23.6"/>
	<circle class="st49" cx="95.7" cy="201" r="23.6"/>
	<circle class="st50" cx="92.6" cy="258.8" r="23.6"/>
	<circle class="st51" cx="92.1" cy="321.4" r="23.6"/>
	<circle class="st52" cx="93.9" cy="383.7" r="23.6"/>
	<circle class="st53" cx="169.4" cy="142.8" r="23.6"/>
	<circle class="st54" cx="166.8" cy="203.7" r="23.6"/>
	<circle class="st55" cx="163.2" cy="256.6" r="23.6"/>
	<circle class="st56" cx="173.7" cy="341.9" r="23.6"/>
	<circle class="st57" cx="162.3" cy="401.9" r="23.6"/>
	<path class="st58" d="M570.3,486.1"/>
</g>
<g id="Layer_4">
</g>
</svg>
